<svg width="360" height="353" viewBox="0 0 360 353" fill="none" xmlns="http://www.w3.org/2000/svg">
<path d="M145.752 61.3176C144.585 61.3176 142.999 61.9648 141.828 62.2901C140.474 62.6663 138.433 63.2963 137.234 64.0338C134.285 65.8485 131.627 67.8972 129.153 70.3716C126.868 72.6567 124.66 75.2274 122.815 77.8495C121.004 80.4237 121.004 83.4195 121.004 86.4339C121.004 92.7843 121.126 100.116 127.342 103.569C130.79 105.485 133.407 108.845 136.631 111.114C138.931 112.733 140.943 116.245 143.958 116.245C151.232 116.245 158.53 119.194 165.821 118.072C169.924 117.441 173.466 112.926 175.496 109.605C177.585 106.186 179.521 101.419 179.872 97.3825C180.259 92.9309 180.157 88.4402 180.157 83.9525C180.157 79.7479 178.901 76.0389 176.351 72.6015C173.854 69.2361 171.276 65.5813 167.314 63.8829C163.293 62.16 157.834 61.0158 153.431 61.0158C150.364 61.0158 147.319 60.2321 144.545 61.6194" stroke="black" stroke-width="3" stroke-linecap="round"/>
<path d="M125.531 71.8805C124.648 71.991 123.88 71.3618 122.983 70.9081C120.893 69.8514 118.933 68.9625 116.779 68.1248C115.452 67.6089 113.923 67.4812 112.554 67.1189C109.768 66.3813 106.564 66.0203 103.953 64.7715C102.068 63.87 100.412 62.2556 98.7383 61.0158C96.4225 59.3004 94.9685 56.6 93.2389 54.3763C91.8441 52.583 90.4862 50.6991 89.6173 48.575C87.925 44.4382 86.5993 39.6528 86.5993 35.1283C86.5993 33.2109 86.2975 31.2949 86.2975 29.3438C86.2975 27.898 86.8262 26.7518 86.9011 25.4037C86.9574 24.3909 88.1883 22.9094 88.8628 22.2348C89.708 21.3896 90.1617 20.2152 91.1263 19.5186C92.3471 18.6369 93.5484 17.7705 94.815 16.9533C97.6484 15.1253 101.094 14.5389 104.405 14.5389C106.461 14.5389 108.508 14.2371 110.592 14.2371C111.562 14.2371 112.682 14.8407 113.761 14.8407C118.184 14.8407 123.198 16.1217 127.577 14.606C129.613 13.9011 131.923 11.684 133.378 10.1629C135.092 8.3715 136.807 6.67756 138.509 4.8814C139.427 3.91216 140.231 2.20161 141.677 1.88019C144.211 1.3172 147.041 1.86342 149.608 1.86342C152.833 1.86342 156.392 2.32825 158.796 4.64667C161.411 7.16844 162.434 10.4815 163.927 13.6335C165.513 16.9828 167.584 20.4466 168.755 23.9617C169.788 27.0608 170.197 30.3236 170.197 33.5522C170.197 35.63 169.145 38.3161 169.896 40.1918" stroke="black" stroke-width="3" stroke-linecap="round"/>
<path d="M166.576 61.6194C166.367 59.7439 165.494 57.9492 165.352 56.0362C165.182 53.75 164.765 51.4815 164.765 49.1786C164.765 47.4753 164.537 46.121 164.748 44.4337C164.996 42.4524 166.264 41.5381 167.179 39.89C168.102 38.2301 169.986 37.1928 171.388 35.9666C172.392 35.0876 173.403 34.0267 174.49 33.2504C178.413 30.4478 180.559 25.1846 183.007 21.1785C185.558 17.0047 190.757 16.9533 195.247 16.9533C198.911 16.9533 202.582 16.8829 206.245 16.9533C209.738 17.0205 212.721 17.8 215.769 19.3677C218.731 20.8913 219.629 24.5738 220.447 27.5163C220.879 29.0724 220.899 30.4221 220.899 32.0432C220.899 33.1342 221.288 35.1469 220.749 36.1175C220.323 36.8834 220.598 38.2496 220.598 39.1187C220.598 40.5961 220.302 42.4021 220.749 43.8301C221.692 46.8482 223.939 47.3955 226.483 48.9439C229.482 50.7693 230.503 54.1504 232.971 56.4889C233.931 57.3977 235.039 58.7837 235.671 59.9428C235.926 60.4107 236.181 60.8701 236.442 61.3344C236.698 61.7898 236.688 62.7185 236.962 63.0613C237.793 64.1009 236.895 66.2692 236.895 67.5045C236.895 68.5669 236.3 70.6643 235.537 71.4279C234.422 72.5423 233.608 73.5801 232.301 74.5967C230.663 75.8708 229.275 77.3604 227.673 78.671C224.953 80.8963 222.168 82.9855 219.692 85.4615" stroke="black" stroke-width="3" stroke-linecap="round"/>
<path d="M181.062 91.4974C187.5 90.6927 192.916 86.1085 199.321 85.1597C200.158 85.0357 200.672 84.6673 201.417 84.3214C202.633 83.7565 204.079 83.6589 205.374 83.3489C206.913 82.9804 208.471 83.044 210.035 82.8124C212.007 82.5202 214.757 82.532 216.523 83.483C217.919 84.2346 218.91 85.5298 220.296 86.2998C221.598 87.0235 222.935 87.6697 224.253 88.3286C227.571 89.9875 231.395 89.5633 234.313 91.9501C237.353 94.4375 238.404 99.0525 238.404 102.798C238.404 104.743 238.404 106.688 238.404 108.633C238.404 110.47 237.8 112.216 237.8 113.981C237.8 115.879 235.416 117.377 234.246 118.592C232.675 120.224 230.69 121.392 228.763 122.717C226.197 124.481 222.767 126.081 223.632 129.977C224.314 133.046 223.917 136.593 223.917 139.785C223.917 143.94 224.221 148.601 221.805 152.092C220.854 153.466 217.967 154.271 216.372 154.271C213.271 154.271 210.146 154.573 207.017 154.573C203.39 154.573 200.279 154.451 196.756 153.668C194.651 153.2 193.172 151.955 191.323 150.952C184.292 147.135 181.866 138.794 177.742 132.609C175.832 129.743 174.411 126.515 173.282 123.253C172.59 121.253 171.409 120.17 169.594 119.263" stroke="black" stroke-width="3" stroke-linecap="round"/>
<path d="M136.094 113.529C127.556 114.382 123.07 120.494 118.573 126.959C116.314 130.205 114.346 132.614 113.225 136.398C112.684 138.221 112.478 140.314 112.269 142.199C112.065 144.036 111.558 145.824 111.33 147.649C110.713 152.583 109.556 159.501 112.403 163.929C116.356 170.079 125.94 167.551 132.003 167.551C135.807 167.551 140.306 166.617 144.209 167.701C145.822 168.149 147.405 168.574 148.937 169.361C151.383 170.617 153.246 173.246 155.342 174.961C156.654 176.034 158.483 177.365 159.333 178.851C160.042 180.092 163.747 180.117 164.899 180.209C168.223 180.475 171.737 180.63 174.121 178.113C175.924 176.209 178.626 173.63 178.933 170.87C179.434 166.355 181.063 161.669 180.224 157.055C179.287 151.905 180.76 146.636 180.76 141.596" stroke="black" stroke-width="3" stroke-linecap="round"/>
<path d="M124.022 73.9931C122.272 73.9931 120.284 73.0076 118.523 72.7189C116.824 72.4404 114.773 72.3064 113.158 71.7297C109.816 70.5362 106.125 69.853 102.896 68.4937C97.7793 66.3392 91.7498 67.9572 86.4484 67.9572C84.9607 67.9572 83.2861 68.7761 81.9214 69.332C80.35 69.9723 78.5884 70.388 77.1765 71.277C74.3093 73.0822 71.5137 75.3736 69.028 77.6818C67.5578 79.0469 66.4411 80.2367 65.2387 81.8399C64.0248 83.4585 62.1484 85.6886 61.8351 87.7249C61.1252 92.3396 62.6388 96.0921 63.9645 100.4C65.4278 105.156 71.835 105.423 74.0747 109.454C75.3297 111.713 75.4328 114.306 75.4328 116.848C75.4328 120.269 75.4328 123.689 75.4328 127.11C75.4328 130.523 75.4535 133.563 78.7358 135.409C82.7851 137.687 86.9002 138.618 91.4951 139.349C93.7312 139.705 96.811 140.282 99.1239 139.768C100.83 139.389 102.436 138.65 104.104 138.209C106.478 137.581 108.012 136.188 110.14 135.124C111.679 134.354 112.745 132.478 114.365 131.938" stroke="black" stroke-width="3" stroke-linecap="round"/>
<path d="M159.333 87.8759C158.084 87.7371 155.738 85.8721 155.175 84.8579C154.286 83.2586 152.96 81.3431 151.855 79.962C151.082 78.9965 151.078 75.3638 151.553 74.2949C152.147 72.9583 152.818 71.0744 154.504 70.9752C156.102 70.8811 157.936 70.608 159.702 70.6734C160.723 70.7112 162.173 70.8625 163.105 71.277C164.006 71.6774 164.324 72.5566 165.067 73.0207C166.281 73.7793 166.504 76.3291 166.576 77.6147C166.623 78.4638 166.576 79.3294 166.576 80.18C166.576 81.3846 166.233 82.0983 165.989 83.198C165.717 84.4209 163.561 86.6687 162.2 86.6687C160.28 86.6687 159.273 86.5016 157.673 85.6124C156.13 84.7555 154.492 83.449 154.219 81.5381C154.018 80.1319 154.117 77.7174 155.862 77.3297C157.726 76.9154 159.309 76.7093 161.294 76.7093C163.373 76.7093 163.558 78.3948 163.558 80.18C163.558 82.0107 162.067 82.3306 160.674 82.7285C160.085 82.8969 159.064 82.1034 159.031 81.5381C158.989 80.8257 158.729 79.9809 158.729 79.1237" stroke="black" stroke-width="3" stroke-linecap="round"/>
<path d="M144.545 102.664C146.065 104.184 147.639 104.173 149.675 104.173C151.055 104.173 153.798 104.496 154.873 103.636C155.445 103.179 156.905 102.94 157.673 102.513C158.611 101.992 159.136 101.217 159.869 100.484C160.856 99.4976 161.143 97.3722 161.143 96.0244" stroke="black" stroke-width="3" stroke-linecap="round"/>
<path d="M147.563 99.3442C147.49 99.9255 145.769 101.138 145.299 101.608C144.768 102.139 144.245 103.267 143.639 103.569" stroke="black" stroke-width="3" stroke-linecap="round"/>
<path d="M157.824 95.119H163.256" stroke="black" stroke-width="3" stroke-linecap="round"/>
<path d="M150.581 91.7992V92.7046" stroke="black" stroke-width="3" stroke-linecap="round"/>
<path d="M51.5908 228.514C50.731 228.428 50.0036 227.778 49.1764 227.541C48.1561 227.25 47.1173 226.854 46.1584 226.401C44.6349 225.682 42.6985 225.494 41.2626 224.59C39.4209 223.431 37.3672 222.666 35.5955 221.338C33.9317 220.09 32.9567 218.158 31.3703 216.911C28.2236 214.439 25.8227 209.914 23.7583 206.55C22.3655 204.28 20.2277 202.726 18.8624 200.581C17.5497 198.518 16.4349 194.36 17.5547 191.996C18.195 190.644 19.0507 189.443 19.6672 188.073C20.2887 186.692 20.4055 185.51 21.4277 184.317C23.5816 181.804 28.1773 182.902 30.9344 182.272C34.2139 181.522 37.8752 182.452 41.1787 181.718C43.0826 181.295 44.2896 179.481 46.0075 178.717C47.4003 178.098 47.7846 177.353 48.8913 176.454C50.1005 175.471 50.9347 173.941 52.0435 172.832C53.0975 171.778 54.2468 169.831 55.5141 169.127C56.9168 168.347 59.0558 168.015 60.6447 167.618C62.4071 167.177 64.1187 167.249 65.9262 167.249C69.3652 167.249 72.9629 167.167 75.9693 169.059C77.4197 169.973 79.1422 171.47 79.9598 172.983C81.1771 175.235 83.2223 177.58 83.8831 180.058C84.5235 182.46 84.8966 184.967 85.5598 187.335C86.1717 189.52 86.9011 192.131 86.9011 194.411C86.9011 196.173 87.2029 197.866 87.2029 199.608C87.2029 200.8 87.6384 202.862 87.052 203.917C86.6956 204.559 86.5993 206.512 86.5993 207.237C86.5993 208.374 86.2975 209.236 86.2975 210.406" stroke="black" stroke-width="3" stroke-linecap="round"/>
<path d="M87.5047 189.884C91.7972 185.591 95.6852 181.086 100.633 177.661C102.615 176.289 105.661 176.906 107.96 176.906C110.055 176.906 112.493 177.932 114.432 178.65C116.47 179.405 117.874 181.622 119.344 183.093C121.518 185.266 122.18 188.261 122.966 191.091C123.65 193.554 123.271 196.204 124.089 198.569C124.63 200.13 126.603 200.748 127.946 201.419C132.14 203.516 134.664 206.87 137.469 210.439C138.839 212.183 140.442 214.347 140.621 216.676C140.751 218.367 140.509 221.305 139.112 222.78C137.26 224.735 135.398 226.625 133.076 228.044C131.4 229.069 130.196 231.043 128.315 231.766C127.114 232.228 126.084 232.965 124.911 233.493C118.765 236.259 111.971 235.757 105.311 235.757" stroke="black" stroke-width="3" stroke-linecap="round"/>
<path d="M51.289 233.644C51.289 227.673 53.0423 220.545 58.8339 217.649C60.2419 216.945 61.6225 215.759 63.0591 215.235C64.4447 214.728 65.7084 214.228 67.016 213.575C68.0901 213.038 70.3596 211.372 71.5094 211.311C73.2101 211.222 74.9308 210.612 76.64 210.423C78.2073 210.248 79.8936 210.406 81.4688 210.406C84.0509 210.406 86.9646 210.501 89.3155 211.546C90.8145 212.212 91.9021 213.79 93.373 214.631C94.4533 215.248 95.8285 215.64 96.7934 216.509C98.1446 217.725 99.4772 218.389 100.314 220.063C100.957 221.349 101.919 223.14 101.991 224.59C102.139 227.547 103.638 230.398 103.802 233.342C103.944 235.908 104.262 238.494 104.104 241.189C104.031 242.419 102.287 243.762 101.538 244.677C100.346 246.134 99.0775 247.423 97.7659 248.734C95.3483 251.152 92.6613 253.069 90.2209 255.374C89.0804 256.451 86.9924 256.643 85.543 256.866C83.2987 257.211 81.1151 257.184 78.8197 257.184C76.8356 257.184 74.8516 257.184 72.8675 257.184C70.9717 257.184 68.7809 256.124 66.9154 255.743C64.9814 255.347 62.4765 254.79 60.8124 253.731C59.0968 252.639 58.1814 251.267 56.7884 249.874C55.0763 248.162 54.0052 244.749 54.0052 242.396C54.0052 239.605 53.0998 236.655 53.0998 233.946" stroke="black" stroke-width="3" stroke-linecap="round"/>
<path d="M31.6721 219.762C30.6378 219.891 29.6885 220.667 28.5032 220.667C27.1004 220.667 25.6976 220.667 24.2948 220.667C21.6966 220.667 18.9376 220.395 16.4313 220.952C15.0956 221.249 13.725 221.505 12.4912 221.857C10.8351 222.331 10.1145 223.855 8.73546 224.741C5.83261 226.607 3.39435 229.828 2.2468 233.041C1.00354 236.522 2.867 240.434 4.27556 243.604C5.24522 245.785 6.26863 248.202 8.43366 249.405C11.1217 250.898 12.6588 254.009 12.6588 256.883C12.6588 258.112 12.6588 259.342 12.6588 260.571C12.6588 261.834 12.6623 263.777 13.0277 264.964C14.7505 270.563 10.6642 278.553 18.2421 280.859C24.5594 282.782 30.4536 281.828 36.5009 279.668C39.1998 278.705 41.7511 276.628 44.3476 275.292C47.062 273.896 50.6939 271.619 52.2614 268.955C52.979 267.735 54.4426 266.527 54.6087 265.031C54.738 263.868 56.0525 261.658 56.7213 260.571C57.6891 258.999 58.2315 256.882 60.0411 255.977" stroke="black" stroke-width="3" stroke-linecap="round"/>
<path d="M48.8746 273.783C48.6305 275.98 47.9692 278.097 47.9692 280.356C47.9692 282.67 47.9692 284.983 47.9692 287.297C47.9692 291.229 46.9348 299.305 51.289 301.482C55.481 303.578 59.5616 304.077 64.2663 303.293C66.8648 302.859 69.4831 301.851 72.113 301.851C74.1883 301.851 75.296 303.606 77.1095 304.265C79.8642 305.267 81.791 307.132 84.8053 307.752C87.5065 308.309 91.0139 308.523 93.8257 308.172C95.1982 308 96.0612 307.177 97.0114 306.227C98.3758 304.862 100.272 304.255 101.522 302.756C103.968 299.82 104.104 295.078 104.104 291.405C104.104 287.996 103.315 283.25 101.538 280.289C99.4612 276.827 98.7117 272.744 96.2401 269.407C94.1012 266.52 90.9043 264.603 88.7119 261.862C87.903 260.851 86.9011 259.774 86.9011 258.392" stroke="black" stroke-width="3" stroke-linecap="round"/>
<path d="M105.009 287.968C107.577 289.328 110.467 290.316 113.392 290.382C115.037 290.42 117.532 290.806 119.126 290.315C120.968 289.749 124.488 289.919 125.531 287.834C126.792 285.313 128.549 283.568 128.549 280.591C128.549 279.55 128.851 278.603 128.851 277.556C128.851 276.374 128.652 274.968 129.321 273.918C130.569 271.956 133.005 269.434 135.055 268.502C138.884 266.761 144.968 267.962 146.121 262.919C147.125 258.524 146.125 254.835 142.432 251.987C141.48 251.252 140.83 250.196 139.951 249.405C139.305 248.824 138.55 248.438 137.905 247.829C136.567 246.566 134.636 245.361 133.076 244.358C130.318 242.585 127.047 242.031 124.173 240.435C122.896 239.725 121.542 239.504 120.267 238.775C119.305 238.226 117.311 238.028 116.779 236.964" stroke="black" stroke-width="3" stroke-linecap="round"/>
<path d="M66.9825 243.302C64.8684 243.067 64.2393 240.223 63.5956 238.775C62.9096 237.231 62.4555 235.135 62.4555 233.493C62.4555 232.518 62.4165 231.534 62.4555 230.559C62.4941 229.595 63.7463 229.013 64.2663 228.363C64.5954 227.951 66.7514 227.608 67.2843 227.608C68.3909 227.608 69.4974 227.608 70.604 227.608C72.6585 227.608 73.8327 228.767 74.7621 230.626C75.2458 231.594 76.1255 232.734 76.3214 233.812C76.5855 235.264 76.0364 236.602 76.0364 238.004C76.0364 242.811 69.4756 243 66.0771 243" stroke="black" stroke-width="3" stroke-linecap="round"/>
<path d="M66.9824 230.023C63.3099 230.023 62.9498 236.36 66.6807 236.36C68.6465 236.36 70.3108 236.897 72.2471 236.344C73.9283 235.863 73.6998 233.458 73.622 232.135C73.4574 229.337 68.0599 228.247 66.0771 229.486C65.1274 230.08 64.8821 233.019 65.6411 233.778C66.6788 234.816 68.6051 235.153 70.0004 235.153" stroke="black" stroke-width="3" stroke-linecap="round"/>
<path d="M84.4867 216.442C83.7291 216.442 82.7584 216.506 82.0724 216.811C81.0959 217.245 81.2339 217.565 80.6304 218.32C80.4584 218.535 80.2788 220.357 80.2616 220.667C80.2187 221.438 80.111 222.479 80.2783 223.232C81.1559 227.181 85.4194 228.212 88.779 228.212C92.4547 228.212 94.8693 223.561 92.5012 220.516C91.3058 218.979 87.7134 215.536 85.6939 215.536" stroke="black" stroke-width="3" stroke-linecap="round"/>
<path d="M83.5813 217.045C83.4435 218.148 82.7591 219.647 83.9502 220.6C84.8291 221.303 86.6082 221.596 87.6388 221.891C88.3308 222.089 88.4766 222.277 89.1814 221.874C89.8672 221.482 90.0285 220.606 89.6173 221.12C89.0801 221.791 86.0801 221.198 85.3921 220.969" stroke="black" stroke-width="3" stroke-linecap="round"/>
<path d="M77.8472 244.207C81.3864 244.207 84.5195 245.382 87.3706 242.531C89.734 240.167 90.2209 237.134 90.2209 233.946" stroke="black" stroke-width="3" stroke-linecap="round"/>
<path d="M79.3562 241.491C79.0799 241.526 78.149 244.64 78.149 245.113" stroke="black" stroke-width="3" stroke-linecap="round"/>
<path d="M86.2975 234.248C88.3117 234.248 90.4126 233.946 92.3335 233.946" stroke="black" stroke-width="3" stroke-linecap="round"/>
<path d="M182.269 154.875C183.249 155.977 183.463 157.985 183.778 159.402C184.115 160.916 184.985 162.346 184.985 163.929C184.985 165.035 185.891 166.203 185.891 167.416C185.891 168.859 186.193 170.183 186.193 171.625C186.193 179.101 185.891 186.505 185.891 193.958C185.891 203.256 185.161 212.591 184.985 221.874C184.92 225.365 183.653 229.207 182.638 232.504C182.06 234.382 181.062 236.845 181.062 238.775" stroke="black" stroke-width="3" stroke-linecap="round"/>
<path d="M153.598 216.442C155.291 216.63 156.278 218.685 157.287 219.694C157.775 220.182 158.03 220.978 158.578 221.405C159.249 221.926 160.056 222.31 160.775 222.78C162.059 223.62 163.322 224.406 164.765 225.127C166.19 225.839 168.341 226.004 169.527 227.072C170.47 227.921 171.935 228.495 172.914 229.419C174.135 230.573 175.09 231.924 176.166 233.108C177.266 234.318 177.876 236.377 178.882 237.635C179.504 238.412 179.263 240.139 180.157 240.586" stroke="black" stroke-width="3" stroke-linecap="round"/>
<path d="M152.391 216.14C152.072 219.012 151.348 222.076 151.804 225.043C152.216 227.718 152.672 230.529 153.531 233.108C154.748 236.758 158.221 239.03 160.003 242.396C163.321 248.664 172.197 248.432 178.346 248.432" stroke="black" stroke-width="3" stroke-linecap="round"/>
<path d="M178.044 250.243C177.47 250.315 176.608 252.756 176.552 253.261C176.35 255.075 176.233 256.862 176.233 258.694C176.233 259.84 175.932 260.84 175.932 262.013C175.932 265.024 176.233 268.031 176.233 271.067C176.233 283.121 177.474 295.152 177.742 307.216C177.824 310.875 178.777 315.096 179.855 318.6C180.43 320.47 181.399 322.186 181.967 324.033C182.316 325.164 182.556 326.642 183.024 327.671C183.687 329.13 184.382 331.726 184.382 333.238C184.382 334.415 184.915 335.704 185.22 336.859C185.501 337.919 186.193 339.418 186.193 340.481" stroke="black" stroke-width="3" stroke-linecap="round"/>
<path d="M190.116 152.159C190.241 153.406 191.36 154.664 191.642 155.931C191.977 157.438 192.981 159.083 193.134 160.609C193.225 161.514 193.921 162.729 194.207 163.627C194.768 165.389 195.675 166.996 196.286 168.741C196.744 170.049 196.88 171.759 197.057 173.134C197.348 175.384 197.92 177.4 198.399 179.589C201.024 191.589 199.702 203.637 199.472 215.838C199.415 218.825 199.373 221.768 199.153 224.741C198.94 227.62 198.045 230.45 197.963 233.342C197.897 235.63 197.121 238.169 196.756 240.451C196.284 243.396 195.989 246.463 195.096 249.321C193.875 253.226 193.159 257.213 192.078 261.108C191.655 262.631 191.323 264.674 191.323 266.238C191.323 266.954 190.668 270.037 191.021 269.86" stroke="black" stroke-width="3" stroke-linecap="round"/>
<path d="M190.72 272.576C190.903 271.108 192.96 268.51 193.905 267.295C195.745 264.929 197.899 262.622 200.847 261.561C203.361 260.655 205.875 258.798 208.593 258.694C211.103 258.597 212.777 257.02 214.863 255.977" stroke="black" stroke-width="3" stroke-linecap="round"/>
<path d="M214.562 256.581C214.562 260.27 214.863 264.13 214.863 267.898C214.863 271.407 214.517 275.889 212.281 278.763C210.74 280.745 208.835 282.61 207.017 284.346C205.158 286.121 202.818 287.435 200.981 289.175C198.577 291.452 195.082 291.891 191.927 291.891" stroke="black" stroke-width="3" stroke-linecap="round"/>
<path d="M189.211 292.797C189.211 295.928 190.046 298.819 190.72 301.851C191.347 304.674 191.283 307.885 192.665 310.452C195.14 315.049 195.326 320.721 197.661 325.391" stroke="black" stroke-width="3" stroke-linecap="round"/>
<path d="M79.9598 232.739C80.6048 232.739 82.6629 231.955 83.2125 232.504C83.2526 232.544 82.4736 234.049 82.3742 234.248" stroke="black" stroke-width="3" stroke-linecap="round"/>
<path d="M132.171 64.6374C130.129 62.5953 128.161 60.6468 126.303 58.4506C124.557 56.3875 121.997 54.2771 120.635 51.9619C119.731 50.4249 118.288 48.5461 118.288 46.6804C118.288 45.2324 117.773 42.709 118.355 41.399C119.283 39.311 121.363 39.1145 123.57 39.6049C125.288 39.9867 125.73 41.8801 127.342 41.0972C129.737 39.9338 130.003 38.2145 131.4 36.4193C132.825 34.5867 134.112 33.854 136.547 33.854C138.481 33.854 140.342 34.4332 141.158 36.2684C141.492 37.0213 141.348 38.1266 142.13 38.6157C143.048 39.1895 143.627 38.6828 144.695 38.6828C146.237 38.6828 148.047 36.7909 149.373 36.2013C150.315 35.7827 153.321 36.6296 153.9 37.6433C154.307 38.3548 154.888 38.5248 155.091 39.4373C155.306 40.4075 155.107 41.6095 155.107 42.6062C155.107 45.1239 154.806 47.5162 154.806 50.0002C154.806 51.742 154.839 54.3005 154.135 55.8853C153.61 57.0673 151.788 58.9104 151.788 60.1104" stroke="black" stroke-width="3" stroke-linecap="round"/>
<path d="M169.896 63.732C169.896 61.424 170.574 59.4169 171.036 57.1595C171.591 54.4434 172.494 50.7943 174.355 48.7092C175.052 47.929 175.789 46.1705 176.233 45.1714C176.636 44.2654 178.144 43.7678 179.017 43.4445C180.927 42.7371 182.639 42.3454 184.55 42.8912C188.571 44.04 188.305 46.5933 188.305 50.302C188.305 51.1497 193.032 50.7547 193.889 50.7547C195.921 50.7547 196.704 51.8363 197.963 53.1691C199.961 55.2853 199.461 59.8549 197.426 61.6865C196.362 62.644 195.429 62.9002 194.576 63.9667C193.399 65.438 195.63 67.0318 196.605 67.7895C198.193 69.0251 197.424 70.7572 197.074 72.3332C196.661 74.194 193.316 74.6784 191.776 74.9153C189.652 75.242 187.465 75.8039 185.287 75.8039C184.218 75.8039 180.732 76.7666 180.76 76.7093" stroke="black" stroke-width="3" stroke-linecap="round"/>
<path d="M119.797 86.3669C119.665 85.3138 113.879 85.4615 112.856 85.4615C110.356 85.4615 107.605 84.8579 105.143 84.8579C103.232 84.8579 101.32 84.8579 99.409 84.8579C98.0309 84.8579 94.9712 85.9598 94.2114 87.2723C93.719 88.1228 93.0941 88.8052 92.7024 89.6866C92.3586 90.4602 92.5149 91.3606 92.2664 92.1681C91.8221 93.6123 92.5469 96.7164 93.9766 97.5334C94.519 97.8433 95.0143 99.007 95.5024 99.4951C96.1406 100.133 96.6118 101.157 96.5587 102.06C96.5248 102.636 95.4951 103.518 95.1167 103.938C94.5967 104.516 94.2626 105.408 94.1275 106.151C93.7389 108.289 93.7031 109.582 95.0497 111.265C96.2752 112.797 98.9781 113.227 100.784 113.227C102.873 113.227 103.352 114.553 103.5 116.48C103.745 119.667 107.116 119.688 109.519 120.168C111.595 120.583 113.211 120.591 115.136 119.716C117.624 118.585 118.662 116.378 120.401 114.434C123.12 111.395 125.446 108.797 129.455 107.795" stroke="black" stroke-width="3" stroke-linecap="round"/>
<path d="M140.319 116.547C140.24 117.184 138.982 118.421 138.509 118.793C137.439 119.634 136.47 120.903 135.625 121.979C134.739 123.107 133.545 124.038 132.624 125.165C131.552 126.474 130.739 128.33 129.907 129.809C128.922 131.562 128.135 134.133 128.247 136.164C128.337 137.781 130.155 139.152 131.265 140.087C134.309 142.65 139.028 139.336 142.281 141.143C143.353 141.739 143.459 142.421 144.109 143.256C144.539 143.81 144.833 145.147 145.299 145.519C146.29 146.312 146.594 147.004 147.864 147.498C149.168 148.005 149.874 148.537 151.335 148.537C152.462 148.537 155.234 148.216 155.409 146.726C155.51 145.873 155.557 142.109 156.315 141.663C158.636 140.298 164.113 141.855 165.369 139.031C165.762 138.147 166.141 137.355 166.341 136.398C166.637 134.982 166.626 134.514 166.576 133.213C166.513 131.571 166.994 129.357 166.509 127.78C166.042 126.262 165.523 124.36 164.53 123.119C164.198 122.703 164.326 121.595 164.094 121.074C163.809 120.43 163.555 119.861 163.256 119.263" stroke="black" stroke-width="3" stroke-linecap="round"/>
<path d="M181.062 94.2136C184.401 94.0684 187.83 93.61 191.156 93.61C192.442 93.61 193.683 93.572 194.945 93.8448C195.774 94.024 196.886 93.6347 197.661 93.9789C200.23 95.1206 201.288 95.9184 202.49 98.6232C203.025 99.8277 203.508 101.586 202.49 102.664C201.469 103.744 199.224 103.623 200.679 105.078C202.782 107.181 201.515 112.115 200.092 114.25C199.482 115.164 197.183 115.845 196.152 115.943C194.611 116.09 192.696 116.232 191.206 116.563C190.673 116.682 191.323 119.045 191.323 119.632C191.323 121.44 190.706 123.334 188.842 124.025C184.758 125.537 180.706 123.602 178.648 120.001C177.563 118.103 175.932 115.385 175.932 113.227" stroke="black" stroke-width="3" stroke-linecap="round"/>
<path d="M57.9285 216.744C56.8559 216.624 55.4094 215.649 54.6087 214.933C53.6175 214.046 52.3006 213.617 51.1381 212.971C50.0569 212.37 48.6583 211.774 47.7344 210.942C46.4714 209.806 46.1922 208.521 45.8398 206.935C45.3087 204.545 45.1312 199.135 48.8746 198.938C50.2204 198.867 52.1636 198.671 53.2506 199.541C53.467 199.714 53.4015 197.31 53.4015 196.892C53.4015 195.844 53.3286 194.874 53.6363 193.874C54.8121 190.053 59.231 191.25 62.4555 191.711C64.3924 191.988 63.4017 193.817 64.3333 194.645C64.3637 194.672 67.8679 192.37 68.3573 192.147C69.7933 191.494 72.1072 191.994 73.4711 192.6C74.9119 193.24 74.9746 195.319 75.3657 196.59C75.9971 198.642 75.4328 201.605 75.4328 203.75C75.4328 205.365 75.4328 206.98 75.4328 208.595" stroke="black" stroke-width="3" stroke-linecap="round"/>
<path d="M92.9371 213.122C93.9469 212.224 95.8283 212.089 97.0281 211.311C98.2681 210.508 98.704 209.717 99.5766 208.595C100.93 206.855 101.889 204.895 103.265 203.163C104.086 202.129 105.608 200.447 106.971 200.447C107.902 200.447 110.381 201.108 110.441 202.257C110.529 203.913 110.358 205.453 110.156 207.069C109.989 208.405 108.542 209.528 110.877 209.132C112.051 208.932 114.912 208.45 115.874 209.651C116.126 209.967 116.955 210.191 117.064 210.574C117.207 211.075 117.244 211.753 117.45 212.217C118.587 214.776 115.15 215.877 113.761 217.347C112.424 218.763 114.233 218.449 115.119 219.158C115.704 219.626 115.572 221.459 115.572 222.176C115.572 226.089 113.253 226.874 110.441 228.883C109.277 229.714 107.75 229.419 106.35 229.419C105.713 229.419 102.309 228.816 103.802 228.816" stroke="black" stroke-width="3" stroke-linecap="round"/>
<path d="M50.3836 233.946C48.8488 233.946 46.1138 232.719 44.6494 232.068C42.9292 231.304 40.8123 230.928 38.9152 230.928C36.2273 230.928 33.7617 233.048 32.7284 235.321C32.2628 236.345 31.8438 239.687 32.4266 240.737C32.7905 241.392 33.0107 242.01 33.4158 242.698C33.7067 243.193 34.1589 243.642 34.5559 244.04C35.3588 244.842 35.7578 246.217 34.5224 246.923C33.1708 247.696 32.495 248.675 32.5775 250.243C32.6653 251.912 34.9352 253.166 36.1991 253.798C36.4991 253.948 37.9168 254.067 37.9931 254.334C38.1535 254.896 38.0098 255.695 38.0098 256.279C38.0098 258.941 38.9916 261.41 42.0841 261.41C43.8462 261.41 45.5332 261.465 47.2147 261.091C48.5143 260.802 49.6621 259.657 50.8195 258.995C53.0393 257.727 53.2432 254.325 54.9105 252.658" stroke="black" stroke-width="3" stroke-linecap="round"/>
<path d="M66.3789 258.09C65.0101 259.63 63.5697 261.663 62.6399 263.522C61.8047 265.193 60.7309 267.284 60.3261 269.106C59.6994 271.926 58.7303 275.745 62.0866 277.036C63.4214 277.549 64.7921 277.405 66.228 277.405C66.7099 277.405 67.5189 276.801 67.8208 277.405C68.1607 278.085 67.6566 278.981 68.0388 279.668C68.6375 280.746 68.9906 282.311 70.3693 282.77C71.0007 282.981 71.7591 282.793 72.4148 282.904C73.286 283.052 74.0655 283.441 74.9633 283.441C75.5659 283.441 76.243 283.577 76.7071 283.206C77.6636 282.441 78.7526 281.746 78.7526 280.255C78.7526 279.876 78.4818 277.652 78.8867 277.472C79.56 277.173 81.1861 278.13 81.9215 278.294C85.511 279.091 88.1083 277.84 88.1083 274.085C88.1083 272.519 87.6154 271.078 87.2197 269.692C86.8107 268.261 85.6716 267.395 85.0903 266.088C84.045 263.736 83.2795 261.674 83.2795 258.995" stroke="black" stroke-width="3" stroke-linecap="round"/>
<path d="M93.5407 255.072C94.9593 255.387 96.0983 258.645 96.7263 259.901C97.403 261.254 98.471 262.498 99.2078 263.824C99.8422 264.966 100.867 266.645 102.31 266.825C104.312 267.076 107.114 267.867 109.083 267.429C110.232 267.174 110.743 266.511 110.743 265.333C110.743 263.24 111.904 264.244 113.459 263.589C114.57 263.122 115.279 263.503 115.874 262.164C116.346 261.102 116.73 260.055 116.461 258.844C116.275 258.011 116.152 256.551 115.639 255.91C114.691 254.725 117.148 254.106 117.534 253.412C118.395 251.862 118.846 249.129 117.617 247.594C116.468 246.157 112.914 245.414 111.213 245.414C108.911 245.414 106.802 244.604 104.707 243.905" stroke="black" stroke-width="3" stroke-linecap="round"/>
<path d="M272.205 184.753C270.225 184.753 268.383 185.261 266.471 185.357C265.656 185.397 263.546 185.762 262.916 186.329C261.94 187.208 260.525 187.731 259.53 188.676C257.816 190.304 256.585 192.245 255.003 193.941C252.814 196.286 251.254 200.023 251.079 203.163C250.993 204.706 251.381 206.149 251.381 207.69C251.381 208.751 251.325 210.849 251.834 211.764C252.48 212.927 252.629 215.267 252.873 216.609C253.124 217.987 253.84 218.957 254.399 220.214C255.284 222.206 257.875 224.502 259.831 225.429C264.259 227.526 268.515 230.324 273.697 230.324C276.648 230.324 280.439 230.655 283.07 229.486C284.796 228.719 287.055 229.019 288.804 228.145C290.01 227.542 291.845 226.661 292.493 225.496C294.039 222.713 296.381 220.413 296.969 217.18C298.082 211.061 298.452 205.093 297.573 198.937C297.259 196.744 296.529 193.561 294.689 192.13C292.493 190.422 290.296 188.662 288.133 186.933C286.717 185.8 283.159 185.357 281.393 185.357C278.817 185.357 276.317 185.055 273.714 185.055" stroke="black" stroke-width="3" stroke-linecap="round"/>
<path d="M269.187 183.848C268.903 181.002 265.253 178.605 264.962 175.699C264.871 174.794 264.129 174.391 263.621 173.737C262.9 172.81 262.413 171.703 261.575 170.803C260.222 169.35 259.176 167.315 258.021 165.673C256.923 164.113 255.127 162.85 254.164 161.213C252.708 158.736 249.957 156.824 247.458 155.713C245.015 154.628 242.288 154.735 239.913 153.735C238.747 153.244 237.153 154.091 235.989 153.601C234.785 153.094 233.054 153.366 231.764 153.366C228.663 153.366 226.892 155.596 225.661 158.195C224.397 160.863 224.028 163.536 222.408 166.109C219.959 169.999 219.436 174.169 218.485 178.449C217.801 181.528 217.249 183.401 213.807 184.166C211.394 184.702 208.682 186.644 207.469 188.827C205.946 191.57 205.508 193.663 205.508 196.959C205.508 198.609 205.473 200.681 205.96 202.241C206.493 203.946 206.123 205.634 206.883 207.371C208.136 210.236 211.455 211.956 213.841 213.608C217.831 216.371 223.226 217.045 227.975 217.045C236.179 217.045 244.384 217.045 252.588 217.045" stroke="black" stroke-width="3" stroke-linecap="round"/>
<path d="M231.462 219.158C227.674 219.537 223.337 220.707 219.759 221.941C216.949 222.91 214.783 226.082 213.204 228.363C211.851 230.316 211.814 234.239 212.164 236.511C212.606 239.382 215.116 241.327 217.278 242.933C221.151 245.81 226.098 245.825 229.182 249.79C232.623 254.215 231.825 260.101 232.955 265.182C233.319 266.821 233.341 268.226 234.179 269.692C234.774 270.734 236.476 272.878 237.8 272.878C240.36 272.878 242.807 273.447 245.345 273.18C247.618 272.941 249.218 271.017 251.213 270.447C252.391 270.11 254.684 267.492 255.304 266.406C256.068 265.07 257.239 263.16 258.322 262.013C259.636 260.623 260.285 258.885 261.81 257.637C263.118 256.566 264.469 255.4 265.867 254.468" stroke="black" stroke-width="3" stroke-linecap="round"/>
<path d="M272.809 232.135C270.224 235.043 270.321 240.37 269.12 243.972C267.686 248.274 267.075 251.965 267.075 256.514C267.075 260.388 267.849 263.908 269.422 267.446C270.013 268.776 270.076 270.315 270.696 271.671C271.43 273.277 271.599 275.831 273.094 276.952C275.988 279.123 279.683 278.612 283.221 278.612C286.718 278.612 290.639 278.89 293.331 276.198C294.321 275.207 295.87 274.393 296.584 273.18C297.022 272.435 298.728 270.261 299.669 270.162C302.094 269.906 304.372 269.256 306.912 269.256C308.7 269.256 310.458 269.558 312.21 269.558C312.901 269.558 314.596 269.944 315.127 269.625C315.158 269.607 316.573 269.977 316.066 270.162C313.533 271.083 315.553 269.525 316.435 269.273C317.979 268.832 321.419 268.222 322.304 266.674C323.549 264.494 324.718 262.271 324.718 259.599C324.718 255.506 325.322 251.439 325.322 247.292C325.322 243.905 324.227 240.715 322.304 237.936C321.577 236.887 319.816 235.683 318.682 235.086C316.956 234.178 315.129 232.672 313.25 232.135C311.755 231.708 309.859 230.461 308.572 229.57C307.093 228.547 305.358 227.865 304.045 226.552C303.291 225.798 301.751 225.103 300.725 224.875C299.459 224.594 298.275 223.383 296.953 223.383" stroke="black" stroke-width="3" stroke-linecap="round"/>
<path d="M297.858 195.316C298.023 193.834 300.275 192.19 301.329 191.409C303.214 190.013 304.896 188.488 306.845 187.167C310.276 184.843 313.397 182.632 317.056 180.662C318.158 180.069 319.585 180.149 320.795 179.924C321.635 179.768 322.673 179.363 323.511 179.321C325.008 179.246 326.564 179.047 328.038 179.019C331.467 178.953 335.621 178.415 339.037 179.036C342.898 179.738 346.929 181.166 350.354 183.093C352.556 184.332 354.086 186.565 355.501 188.609C356.916 190.653 357.614 193.131 357.614 195.618C357.614 197.017 357.858 198.649 357.547 200.011C357.302 201.08 356.413 201.913 355.803 202.794C354.418 204.794 351.64 205.405 350.438 207.69C349.883 208.743 349.122 209.556 348.711 210.708C348.37 211.662 348.56 212.887 348.56 213.893C348.56 219.198 350.8 224.488 350.052 229.721C349.724 232.021 347.823 234.771 345.995 236.193C344.869 237.069 342.44 237.086 341.082 237.333C340.023 237.526 339.086 237.568 337.997 237.568C335.095 237.568 332.033 238.171 329.094 238.171C326.992 238.171 324.576 238.118 322.605 238.775" stroke="black" stroke-width="3" stroke-linecap="round"/>
<path d="M264.057 173.285C263.204 163.902 263.151 154.545 263.151 145.117C263.151 138.86 269.604 135.933 274.687 134.118C277.001 133.291 279.032 131.927 281.427 131.184C283.193 130.636 285.3 130.429 287.144 130.429C288.225 130.429 290.084 130.05 291.101 130.597C293.373 131.821 295.931 133.475 297.187 135.862C298.288 137.953 299.22 140.177 300.574 142.132C301.804 143.909 302.653 146.048 304.531 147.196C307.94 149.279 311.366 149.485 315.211 150.197C322.089 151.471 328.482 151.77 331.659 159.033C332.577 161.131 333.139 164.045 332.85 166.36C332.578 168.531 332.064 169.67 330.905 171.474C329.219 174.097 325.724 175.699 324.718 178.717" stroke="black" stroke-width="3" stroke-linecap="round"/>
<path d="M255.003 191.694C251.952 188.262 249.424 184.062 247.156 180.092C246.016 178.097 241.255 179.014 239.477 179.337C236.188 179.935 235.557 184.975 236.308 187.603C236.972 189.927 235.721 188.978 233.743 188.978C232.208 188.978 230.708 188.882 229.216 189.28C227.089 189.847 226.954 190.402 226.567 192.533C226.305 193.97 226.564 195.214 227.237 196.523C227.756 197.533 228.749 198.03 229.283 198.937C229.53 199.359 230.37 199.541 230.859 199.541C231.418 199.541 232.535 198.982 232.535 199.541C232.535 200.716 227.107 202.246 228.377 203.833C228.85 204.424 228.936 205.06 229.585 205.644C230.152 206.155 231.066 206.652 231.764 207.019C233.492 207.928 235.37 208.289 237.264 208.83C239.014 209.33 241.771 209.199 243.601 209.199C245.49 209.199 247.379 209.199 249.268 209.199" stroke="black" stroke-width="3" stroke-linecap="round"/>
<path d="M278.241 184.149C278.09 182.943 277.027 181.627 276.749 180.377C276.327 178.479 276.128 176.765 276.128 174.794C276.128 172.465 275.358 169.896 275.894 167.551C276.289 165.82 276.417 163.279 278.006 162.118C279.133 161.295 280.771 160.089 281.997 161.665C282.793 162.689 283.372 164.889 283.372 166.192C283.372 167.352 283.555 167.683 284.596 167.098C285.697 166.478 286.878 166.039 288.049 165.589C289.287 165.113 291.23 164.854 292.576 165.153C293.486 165.355 294.236 166.694 294.236 167.551C294.236 168.112 293.686 170.847 294.002 171.105C294.419 171.447 296.75 171.474 297.405 171.474C297.99 171.474 299.352 171.881 299.82 172.245C300.865 173.058 301.996 173.753 302.687 174.961C306.369 181.406 296.023 184.638 293.331 188.676" stroke="black" stroke-width="3" stroke-linecap="round"/>
<path d="M298.763 201.05C301.285 201.05 304.822 200.19 307.147 199.239C309.231 198.386 311.274 196.876 313.401 196.221C316.126 195.383 319.223 193.007 321.767 195.551C323.7 197.484 320.457 200.902 318.833 201.805C318.478 202.002 317.341 202.538 318.078 202.928C318.957 203.393 319.171 203.612 319.889 204.37C320.903 205.44 320.795 206.908 320.795 208.31C320.795 209.738 320.779 211.005 320.476 212.368C320.054 214.267 318.322 214.202 316.737 214.564C314.88 214.988 314.155 213.983 314.155 216.207C314.155 217.364 314.828 218.831 313.987 219.912C312.556 221.753 308.07 221.081 306.308 220.298C305.216 219.813 303.715 219.437 302.536 219.175C300.994 218.832 299.849 217.225 298.763 216.14" stroke="black" stroke-width="3" stroke-linecap="round"/>
<path d="M254.097 221.874C249.5 221.874 243.981 220.716 239.98 223.383C236.939 225.41 236.42 227.359 237.18 230.777C237.421 231.861 238.601 232.808 239.46 233.477C239.905 233.823 240.307 233.954 240.818 234.181C241.719 234.581 241.099 234.693 240.818 235.606C240.408 236.938 240.214 237.823 240.214 239.228C240.214 240.935 240.695 241.195 242.025 241.86C243.226 242.46 244.596 242.698 245.949 242.698C247.058 242.698 249.131 242.228 249.939 243.067C250.962 244.129 250.965 245.685 252.052 246.554C253.198 247.472 255.782 246.622 257.082 246.622C259.733 246.622 261.531 241.511 262.246 239.546C262.779 238.079 263.163 236.486 263.436 234.986C263.555 234.333 263.548 231.484 264.057 231.23" stroke="black" stroke-width="3" stroke-linecap="round"/>
<path d="M277.034 233.342C276.087 233.461 275.525 241.44 275.525 242.698C275.525 243.866 275.352 245.1 275.827 246.169C276.504 247.692 278.624 248.251 280.035 248.868C281.017 249.298 283.027 249.223 283.975 248.801C285.476 248.134 285.576 246.898 286.239 249.019C286.829 250.907 287.934 250.847 289.709 250.847C290.678 250.847 291.527 250.809 292.358 250.243C292.897 249.877 293.054 249.141 293.633 248.801C294.495 248.294 294.84 246.039 294.84 245.113C294.84 243.999 298.022 244.509 299.065 244.509C301.747 244.509 305.101 243.608 305.101 240.435C305.101 238.015 304.641 234.995 302.838 233.192C301.387 231.741 299.675 230.378 297.858 229.419C296.327 228.611 294.862 227.005 293.029 227.005" stroke="black" stroke-width="3" stroke-linecap="round"/>
<path d="M267.075 194.109C263.873 194.109 259.228 195.124 259.228 199.239C259.228 202.616 258.388 206.749 262.698 207.706C266.454 208.541 271.601 208.368 271.601 203.314C271.601 201.414 272.078 200.091 270.998 198.2C270.696 197.671 270.112 196.599 269.64 196.221C268.818 195.564 268.201 195.262 267.376 194.712" stroke="black" stroke-width="3" stroke-linecap="round"/>
<path d="M288.804 197.428C285.849 197.428 280.957 197.871 280.957 201.955C280.957 204.794 279.624 211.141 284.042 211.311C287.055 211.427 292.124 211.141 292.124 207.086C292.124 205.878 293.081 203.605 292.191 202.492C291.267 201.337 291.543 198.334 289.408 198.334" stroke="black" stroke-width="3" stroke-linecap="round"/>
<path d="M261.34 198.032C263.355 198.032 265.569 197.584 266.773 199.088C267.696 200.243 267.223 202.243 266.236 203.23C265.133 204.333 263.464 205.429 261.81 204.957C260.783 204.663 260.737 201.316 260.737 200.446" stroke="black" stroke-width="3" stroke-linecap="round"/>
<path d="M282.164 201.654C282.246 200.997 286.245 201.246 286.691 201.805C287.491 202.804 288.489 204.701 287.832 206.181C287.018 208.01 287.886 208.897 285.333 208.897C284.62 208.897 283.579 209.081 283.07 208.444C282.624 207.886 282.784 207.118 282.466 206.482" stroke="black" stroke-width="3" stroke-linecap="round"/>
<path d="M264.66 214.329C268.681 218.35 281.156 224.495 284.881 217.045" stroke="black" stroke-width="3" stroke-linecap="round"/>
<path d="M260.435 214.933C261.585 214.933 262.578 214.415 263.688 214.329C264.788 214.245 266.358 214.065 267.376 213.726" stroke="black" stroke-width="3" stroke-linecap="round"/>
<path d="M280.052 215.235C282.203 215.474 284.165 217.045 286.39 217.045" stroke="black" stroke-width="3" stroke-linecap="round"/>
<path d="M105.914 294.909C107.742 295.112 110.284 298.629 111.347 299.973C112.978 302.036 114.851 304.047 116.813 305.791C120.265 308.859 124.399 311.178 127.962 314.073C129.535 315.351 131.464 316.264 132.406 318.148C132.99 319.316 134.982 321.362 134.568 322.809C134.464 323.174 123.515 321.467 122.379 321.467C120.674 321.467 118.814 321.005 117.081 320.847C115.001 320.658 113.071 320.26 110.978 320.26C104.98 320.26 101.323 324.07 96.6257 327.202C95.6024 327.884 94.1443 329.31 94.1443 330.689C94.1443 332.005 93.6834 332.86 93.3059 334.076C92.9309 335.284 93.052 336.732 92.7023 337.999C91.983 340.607 91.1263 343.498 91.1263 346.215" stroke="black" stroke-width="3" stroke-linecap="round"/>
<path d="M91.1263 346.818C93.1332 347.069 95.2173 347.724 97.397 347.724C100.836 347.724 104.241 347.951 107.658 348.026C112.891 348.139 117.806 346.616 122.815 345.309C124.985 344.743 127.14 343.647 129.153 342.66C131.326 341.595 133.135 340.724 134.887 338.972C136.686 337.173 138.189 335.134 139.95 333.305C140.694 332.532 142.104 331.504 142.432 330.521" stroke="black" stroke-width="3" stroke-linecap="round"/>
<path d="M111.95 292.495C112.947 292.606 114.611 294.25 115.27 294.909C116.578 296.217 117.682 297.755 118.908 299.134C121.134 301.638 123.112 304.328 125.397 306.83C127.884 309.554 131.343 312.282 134.568 314.057C138.553 316.248 141.477 320.563 145.785 322.239C151.868 324.604 158 326.716 164.631 326.9C166.943 326.964 170.97 329.136 172.075 331.125C173.444 333.589 177.191 334.481 179.318 335.954C180.115 336.505 181.038 337.226 181.984 337.463C182.74 337.652 184.941 337.978 185.287 338.67" stroke="black" stroke-width="3" stroke-linecap="round"/>
<path d="M196.756 323.278C197.57 315.946 199.571 307.17 205.441 302.152C209.685 298.524 215.31 297.444 220.296 295.228C224.562 293.332 228.707 291.937 232.67 289.41C234.682 288.126 236.566 286.788 238.253 285.101C239.563 283.791 240.841 282.217 242.377 281.177C245.694 278.934 248.934 276.694 251.683 273.783C253.879 271.458 257.144 269.501 258.624 266.54" stroke="black" stroke-width="3" stroke-linecap="round"/>
<path d="M204.602 333.238C204.602 329.83 204.239 325.812 205.659 322.658C207.957 317.551 211.076 312.919 214.696 308.641C216.107 306.974 216.754 305.019 218.887 304.097C219.807 303.7 222.71 301.751 222.71 303.812C222.71 304.774 222.592 305.58 223.079 306.378C224.218 308.242 226.546 309.47 228.143 310.921C231.339 313.827 236.618 315.911 240.952 316.035C247.668 316.227 254.376 316.337 261.106 316.337C266.484 316.337 271.773 316.293 277.118 316.941C278.727 317.136 280.96 318.214 282.164 319.355C283.586 320.702 286.095 324.485 288.2 324.485" stroke="black" stroke-width="3" stroke-linecap="round"/>
<path d="M239.913 289.175C245.033 287.81 251.346 288.372 256.646 288.588C259.707 288.713 262.695 288.914 265.7 289.46C271.205 290.461 273.788 297.061 276.581 301.096C278.275 303.542 279.502 306.256 281.024 308.792C282.454 311.174 282.991 313.898 284.21 316.337C285.371 318.659 287.094 321.166 287.899 323.58" stroke="black" stroke-width="3" stroke-linecap="round"/>
<path d="M241.12 289.175C242.566 289.031 244.08 287.258 245.278 286.459C246.813 285.436 248.498 284.587 249.939 283.441C253.035 280.978 256.241 277.946 258.021 274.387C259.407 271.614 260.79 269.77 263.252 267.882C264.7 266.77 266.286 265.4 267.074 263.824" stroke="black" stroke-width="3" stroke-linecap="round"/>
<path d="M137.865 98.1588C140.139 97.8745 140.527 94.1277 140.527 92.4639C140.527 90.2745 139.838 87.8846 138.249 86.2958C137.557 85.6035 137.191 84.7836 136.267 84.3728C135.331 83.9568 134.295 84.0474 133.279 84.0474C131.585 84.0474 129.508 84.0104 128.487 85.6449C126.097 89.4681 126.154 93.8005 128.664 97.7446C129.825 99.5694 131.181 100.023 133.338 100.023C134.244 100.023 134.948 99.9478 135.794 99.6971C136.591 99.4609 137.632 98.6913 138.397 98.6913" stroke="black" stroke-width="3" stroke-linecap="round"/>
<path d="M129.611 97.0937C129.611 95.549 129.357 93.8242 130.143 92.4491C130.96 91.02 132.307 90.9699 133.871 90.9699C134.933 90.9699 137.69 90.4853 138.397 91.3693C139.471 92.7116 138.472 93.8937 138.146 95.3631C137.552 98.0362 132.905 98.2062 130.824 97.6115C129.681 97.285 129.289 94.8367 129.344 93.8987C129.425 92.538 131.908 92.2178 132.806 91.7687" stroke="black" stroke-width="3" stroke-linecap="round"/>
<path d="M143.254 330.273C145.491 332.262 148.736 331.892 151.176 333.373C152.688 334.292 154.523 334.696 156.024 335.652C156.912 336.217 158.068 336.726 159.044 337.136C160.372 337.692 161.897 338.44 163.284 338.805C166.17 339.564 168.957 340.834 171.868 341.481C173.163 341.769 174.862 342.421 175.975 343.15C180.191 345.912 184.511 348.447 188.798 351.019" stroke="black" stroke-width="3" stroke-linecap="round"/>
<path d="M135.8 92.6212C136.209 93.0813 136.744 93.7867 136.744 94.3917C136.744 94.7711 136.143 96.1027 136.39 95.559C136.658 94.969 136.879 93.8757 136.731 93.2114C136.529 92.3031 135.807 92.835 135.21 92.5031C134.437 92.074 132.458 92.3527 131.839 92.9097C131.436 93.2722 131.314 94.2445 131.314 94.7458C131.314 95.5073 131.731 95.5799 132.023 96.1623" stroke="black" stroke-width="3" stroke-linecap="round"/>
<path d="M163.893 82.47C163.893 84.7466 161.314 84.4118 159.932 84.3586C159.048 84.3246 157.875 83.5747 157.23 82.9946C156.486 82.3249 156.439 81.7163 155.919 81.0011C155.661 80.647 156.102 78.761 156.102 79.6371C156.102 80.3977 156.007 81.1613 156.574 81.7618C157.648 82.8986 158.78 83.9269 160.115 84.5947" stroke="black" stroke-width="3" stroke-linecap="round"/>
<path d="M275.961 204.031C275.757 205.868 273.948 207.612 273.175 209.244C272.847 209.936 272.106 212.642 273.479 212.719C274.66 212.784 275.56 212.679 275.961 211.478" stroke="black" stroke-width="3" stroke-linecap="round"/>
</svg>
