<svg width="266" height="262" viewBox="0 0 266 262" fill="none" xmlns="http://www.w3.org/2000/svg">
<path d="M198.917 103.349C198.144 103.111 201.634 86.4369 201.888 85.0028C202.461 81.7555 202.372 78.4347 202.817 75.1887C203.011 73.7746 202.968 71.6513 202.556 70.265C202.052 68.5714 201.098 67.9908 200.07 66.8224C199.532 66.2102 197.687 65.642 196.924 65.2707C195.458 64.5569 194.199 63.5726 192.849 62.6628C190.494 61.0758 188.457 56.4547 188.948 53.6764C189.526 50.4008 191.506 46.4519 194.693 45.0543C196.674 44.1856 198.367 42.3967 200.62 42.1449C202.947 41.8847 204.693 42.0014 206.997 42.4081C210.439 43.0157 214.278 43.7979 217.344 45.2903C218.864 46.0302 220.404 48.1822 221.11 49.7323C222.084 51.868 222.771 54.6475 222.355 57.0007C222.07 58.615 222.216 60.3543 221.435 61.8793C220.796 63.1276 219.523 65.4944 218.092 65.9885C215.468 66.8942 212.678 67.3256 210.34 68.9623C207.65 70.8453 209.169 73.8961 209.279 76.4037C209.308 77.0511 209.323 77.9963 209.661 78.5381C209.981 79.0515 210.541 80.0954 210.683 80.6666C211.104 82.3614 211.83 83.9076 212.05 85.726C212.277 87.5919 212.004 90.2265 212.981 91.9128C213.59 92.9636 213.577 94.6653 214.041 95.8474C214.412 96.7923 215.024 97.5187 215.359 98.4891C216.051 100.493 217.037 102.434 217.656 104.516C217.843 105.145 218.375 107.896 219.027 107.702" stroke="black" stroke-width="3"/>
<path d="M215.271 97.1352C215.653 95.8339 217.165 95.0601 217.47 93.776C217.655 92.9981 218.693 91.8091 219.214 91.1395C220.641 89.3078 222.333 87.7435 223.807 85.9276C225.967 83.2667 227.856 80.6474 229.16 77.504C229.601 76.4435 230.087 75.3719 230.29 74.2236C230.543 72.7915 229.904 72.1867 229.461 70.9991C229.267 70.4783 228.433 69.7832 228.083 69.2838C227.701 68.7376 227.747 68.032 227.405 67.4836C226.612 66.2139 226.795 63.6922 227.045 62.2749C227.57 59.3045 227.487 56.1026 228.641 53.3218C228.97 52.5273 230.52 51.2754 231.328 50.9857C232.335 50.6245 233.75 50.1914 234.788 50.258C236.293 50.3545 237.785 50.0675 239.338 50.2582C241.82 50.5628 244.286 50.8638 246.782 51.3045C247.99 51.5177 249.135 51.7707 250.308 52.1351C251.23 52.4213 252.226 52.3361 252.935 52.9259C253.953 53.773 255.017 55.1007 255.531 56.3286C257.351 60.674 256.544 64.9971 255.752 69.4835C255.46 71.1378 254.467 72.8337 253.334 74.083C252.146 75.3927 250.781 75.9769 249.354 76.9196C246.964 78.4976 242.457 77.8436 239.787 77.3721C233.607 76.2814 233.165 84.658 232.261 88.8326C231.468 92.5007 229.903 96.1302 229.243 99.8691C228.8 102.378 228.357 104.888 227.914 107.397" stroke="black" stroke-width="3"/>
<path d="M211.377 105.549C212.918 105.664 214.357 105.227 215.927 105.549C217.814 105.936 219.671 106.477 221.592 106.816C224.677 107.361 227.705 108.431 230.716 108.962C232.102 109.207 233.641 109.884 234.841 110.612C235.444 110.978 236.431 111.097 236.869 111.595C237.158 111.924 237.58 112.557 237.925 112.852C238.723 113.532 239.446 114.823 240.099 115.704C241.393 117.451 243.627 118.946 245.274 120.335C248.543 123.093 248.322 127.545 248.21 131.59C248.097 135.676 248.728 140.645 247.326 144.431C246.875 145.649 245.092 146.321 243.92 146.373C242.521 146.434 241.028 147.639 239.578 147.465C234.808 146.894 230.065 146.589 225.293 145.747C223.635 145.454 221.706 145.36 220.104 144.816C219.396 144.575 218.608 144.179 217.939 143.854C217.079 143.435 216.409 142.832 215.574 142.425C214.418 141.862 213.928 140.724 213.238 139.738C212.081 138.085 213.099 141.145 213.342 141.763C213.636 142.513 214.698 143.096 214.78 143.891C214.881 144.857 215.72 145.875 216.149 146.75C216.777 148.028 218.323 148.952 219.162 150.152C220.092 151.479 221.109 152.247 222.399 153.132C223.249 153.715 225.342 154.25 225.874 155.01C226.489 155.888 224.636 157.743 224.048 158.108C222.774 158.898 220.016 158.734 218.613 158.487C214.564 157.772 210.404 157.305 206.324 156.585C203.377 156.065 199.688 156.34 196.863 155.168C195.633 154.657 194.161 154.092 193.222 153.053C192.467 152.218 191.803 151.062 190.883 150.38" stroke="black" stroke-width="3"/>
<path d="M211.971 129.476C211.034 129.187 210.877 127.326 210.67 126.57C210.274 125.124 210.465 123.151 210.669 121.692C210.948 119.696 211.372 117.707 211.723 115.722C212.043 113.905 212.818 113.021 214.263 111.947C216.702 110.133 221.776 110.864 224.683 111.377C228.24 112.005 232.071 113.55 232.752 117.56C232.986 118.933 233.008 120.557 232.845 121.919C232.698 123.15 232.956 124.323 232.733 125.587C232.118 129.073 228.573 130.045 225.811 131.443C222.816 132.96 217.628 133.556 214.528 132.01C213.51 131.502 212.225 131.429 211.596 130.421C211.257 129.878 210.848 127.72 211.513 127.522" stroke="black" stroke-width="3"/>
<path d="M213.285 123.552C213.537 122.122 216.352 120.481 217.642 120.098C219.972 119.405 221.98 119.733 224.325 120.147C226.98 120.616 226.591 122.474 226.188 124.759C225.999 125.826 225.79 126.723 225.387 127.695C225.018 128.585 223.464 129.93 222.457 129.974C221.374 130.022 220.476 130.442 219.331 130.24C218.128 130.028 217 129.561 215.858 129.359C213.514 128.946 211.646 128.287 212.117 125.621C212.414 123.935 213.291 121.62 215.382 121.528C217.963 121.414 220.764 120.589 223.363 121.048C224.13 121.183 225.483 121.431 225.524 122.366C225.57 123.413 225.459 124.339 225.271 125.4C224.782 128.175 222.598 128.351 220.181 128.457C218.721 128.521 217.137 127.879 215.69 128.125C214.314 128.359 213.933 127.462 214.135 126.319C214.524 124.114 215.742 122.523 218.087 122.124C219.505 121.883 225.17 121.423 224.699 124.094C224.529 125.055 223.827 125.66 223.059 126.14C222.036 126.778 221.356 126.335 220.255 126.522C219.098 126.719 214.679 126.269 214.941 124.781C215.147 123.618 216.389 123.564 217.328 123.73C218.331 123.907 219.191 123.524 220.217 123.705" stroke="black" stroke-width="3"/>
<path d="M96.671 95.7405C95.446 95.3811 95.8764 92.6605 96.0375 91.7474C96.2975 90.2745 96.8212 88.5648 98.4851 88.5808C100.36 88.5987 101.907 89.1699 103.679 89.4828C104.736 89.6692 106.066 90.346 106.698 91.2499C107.12 91.8529 107.247 92.6534 107.538 93.3165C107.757 93.8166 108.227 94.1893 108.36 94.7256C108.853 96.7108 109.505 98.8543 109.146 100.887C108.792 102.891 108.782 105.487 107.809 107.283C106.502 109.696 104.864 110.988 102.13 111.486C100.766 111.734 99.2867 112.411 97.9377 112.827C95.3807 113.617 92.7542 114.281 90.1416 114.871C87.5902 115.448 84.2582 115.045 81.8111 114.13C80.3402 113.58 79.6883 113.256 78.8378 111.85C77.8617 110.237 77.6802 108.303 76.5222 106.772C72.6198 101.614 71.3506 93.6104 72.4383 87.448C73.1767 83.2652 73.575 79.1022 76.0171 75.514C77.2784 73.6606 79.1385 72.3971 80.7203 70.8569C81.8193 69.7869 83.8719 67.7264 85.4567 67.5292C86.6875 67.376 87.7702 66.6235 88.9993 66.4146C90.3517 66.1848 91.7261 66.318 93.0789 66.0492C97.764 65.1181 103.381 65.3397 108.019 66.1584C111.557 66.7829 115.095 67.4075 118.634 68.032C122.245 68.6695 125.643 71.531 128.14 73.9927C131.904 77.7048 133.405 82.5675 134.505 87.6373C135.227 90.9654 135.879 94.5128 136.231 97.9054C136.543 100.905 137.507 103.794 137.523 106.848C137.54 110.161 136.42 113.493 136.448 116.814C136.478 120.391 135.063 124.051 133.918 127.357C133.067 129.812 131.432 133.637 129.392 135.391C123.249 140.675 117.956 148.616 109.913 151.136C105.558 152.501 101.516 155.017 97.0621 156.036C92.5381 157.07 88.0248 157.92 83.4295 157.109C80.4954 156.591 77.6004 155.88 74.7072 155.302C72.0726 154.775 69.7887 153.559 67.2472 152.914C65.6531 152.509 63.4595 151.527 62.0929 150.607C61.1206 149.951 58.8879 149.018 58.5555 147.9" stroke="black" stroke-width="3"/>
<path d="M59.4717 147.259C58.5315 147.035 56.3148 145.674 55.746 144.861C54.5712 143.183 54.0914 141.39 53.3387 139.544C52.9537 138.6 52.6343 137.596 52.2394 136.673C51.5762 135.123 50.1171 134.219 49.1653 132.859C47.3498 130.265 44.4073 128.021 42.0983 125.887C41.3703 125.214 39.355 124.032 39.4236 122.842C39.4446 122.478 38.9993 121.689 38.8969 121.277C38.6451 120.263 38.3181 119.275 38.0903 118.264C36.4723 111.087 32.4775 104.734 30.9119 97.5166C30.2197 94.3257 29.8338 90.9557 29.0112 87.8126C28.0659 84.2006 27.2159 80.16 27.276 76.4128C27.3503 71.7913 27.49 67.3539 28.8019 62.8822C29.5498 60.333 30.1706 57.7619 31.1546 55.2822C31.6287 54.0874 32.4663 53.0745 32.6928 51.7914C32.9522 50.322 35.0153 52.868 35.7263 52.8028C36.7626 52.7076 36.7654 52.6646 37.35 51.9443C37.8701 51.3037 37.7986 50.2293 38.2324 49.5572C38.9812 48.3972 39.4898 46.8573 40.0785 45.5855C42.0149 41.4019 44.0156 36.9123 47.1693 33.4684C49.3876 31.0459 51.4429 28.3265 53.4836 25.7498C54.5484 24.4054 55.6341 22.9589 56.978 21.8757C58.1728 20.9128 59.7377 20.4574 61.011 19.5837C63.0935 18.1549 65.3037 16.9458 67.6518 15.9973C70.205 14.966 72.6826 14.9153 75.3801 14.7591C79.9782 14.4928 84.4348 13.5448 88.9872 13.0715C90.6782 12.8958 92.6243 12.9403 94.3078 13.0887C96.6035 13.2912 98.9314 13.4123 101.236 13.4343C102.39 13.4454 103.529 13.1698 104.667 13.3708C107.916 13.9443 111.263 14.1131 114.522 14.3222C117.731 14.5281 120.969 15.6168 123.698 17.2654C124.94 18.0152 126.091 18.7959 127.234 19.6443C127.839 20.0929 128.72 20.7985 129.47 20.961C135.195 22.2 141.493 24.5052 144.71 29.8223C145.705 31.4669 146.662 33.1323 147.706 34.7529C149.421 37.4149 150.303 40.5347 151.69 43.3524C152.831 45.6698 153.966 47.9958 155.003 50.3614C156.185 53.0556 156.845 55.9225 157.943 58.6428C159.856 63.3791 161.202 68.5129 162.714 73.4037C163.974 77.4824 164.342 81.389 165.053 85.5942C165.422 87.7802 165.114 90.1005 165.263 92.3231C165.354 93.6853 165.521 95.0237 165.616 96.3857C165.791 98.8686 167.69 101.383 168.925 103.423C170.314 105.721 171.985 108.034 173.935 109.914C175.131 111.067 178.438 113.987 180.272 113.442" stroke="black" stroke-width="3"/>
<path d="M93.6907 158.117C94.129 158.671 95.0982 158.652 95.725 158.893C97.074 159.411 98.5224 159.99 99.9394 160.291C101.907 160.709 104.003 160.741 106.013 161.095C108.988 161.62 111.694 161.909 114.687 161.407C119.341 160.626 123.826 161.029 128.329 159.354C132.531 157.791 136.931 157.931 140.998 155.82C143.746 154.395 146.065 153.087 148.463 151.19C149.857 150.086 150.498 149.963 151.242 148.334C151.611 147.527 153.327 145.462 154.266 145.522C154.833 145.559 155.434 144.942 155.776 144.554C156.815 143.372 157.824 142.163 158.875 140.982C161.265 138.296 163.622 135.627 166.109 133.025C167.995 131.051 169.91 129.104 171.713 127.054C172.655 125.983 173.866 124.865 174.656 123.693C175.603 122.286 176.33 120.613 176.625 118.94C176.944 117.133 177.752 115.589 178.058 113.854" stroke="black" stroke-width="3"/>
<path d="M58.5858 153.794C57.2381 153.556 55.4273 154.409 54.6665 155.526C53.3722 157.428 51.6417 159.558 49.9208 161.098C47.6244 163.153 45.2973 164.443 43.4224 166.91C41.7029 169.174 39.7873 171.25 37.9861 173.446C35.9551 175.921 33.4044 178.038 31.5038 180.599C29.879 182.789 28.3154 184.983 26.9658 187.352C25.7517 189.484 24.4295 191.619 23.5468 193.917C22.9549 195.457 22.8182 197.202 22.532 198.823C22.0804 201.382 21.8528 203.538 22.1661 206.12C22.4086 208.119 22.0555 210.327 22.7334 212.257C23.4378 214.264 24.8733 215.608 26.0195 217.313C27.2348 219.121 28.9247 220.776 30.4204 222.373C31.8925 223.945 32.9532 226.411 35.0418 227.278C36.8864 228.044 40.7342 227.632 41.1523 225.264C42.111 219.832 42.3307 213.109 45.0825 208.306C46.2861 206.205 47.3347 204.134 49.1351 202.448C50.3019 201.356 51.8742 199.533 53.3582 198.911C54.6891 198.354 56.3369 198.414 57.739 198.019C59.1661 197.617 60.7037 197.095 62.1884 196.99C64.4337 196.832 66.7059 196.12 68.9691 195.897C73.1849 195.481 77.3259 195.433 81.5718 195.266C87.2385 195.043 92.622 196.473 98.1393 197.447C100.598 197.881 103.142 198.14 105.635 198.369C109.96 198.766 114.29 199.294 118.606 199.781C120.996 200.051 123.481 200.047 125.846 200.464C132.625 201.661 140.766 202.611 147.175 199.679C149.612 198.564 151.746 196.332 153.865 194.718C155.828 193.224 157.671 191.565 159.709 190.173C160.454 189.664 161.544 188.852 162.434 188.721" stroke="black" stroke-width="3"/>
<path d="M197.128 149.876C196.64 150.306 196.466 151.263 196.185 151.851C195.658 152.953 194.78 153.843 194.349 155.007C193.186 158.147 191.075 160.882 189.469 163.781C186.218 169.65 182.57 175.158 177.23 179.287C175.336 180.752 173.41 182.634 171.331 183.808C170.114 184.495 168.937 185.469 167.823 186.326C167.04 186.929 166.398 187.921 165.462 188.244C164.294 188.647 163.438 189.692 162.418 190.324C161.92 190.633 161.32 190.638 160.83 190.981C160.399 191.283 159.915 191.806 159.456 191.943" stroke="black" stroke-width="3"/>
<path d="M178.046 109.719C179.907 109.952 181.504 111.259 183.694 111.259C186.266 111.259 188.672 111.323 191.139 110.775C195.108 109.892 198.07 108.469 198.07 104.072" stroke="black" stroke-width="3"/>
</svg>
