<svg width="195" height="247" viewBox="0 0 195 247" fill="none" xmlns="http://www.w3.org/2000/svg">
<path d="M102.179 85.8075C96.9248 85.8075 91.8029 86.5488 86.611 86.5488C84.4159 86.5488 81.208 87.1027 79.1979 87.949C77.2706 88.7605 75.2453 88.9458 73.2468 90.07C70.4364 91.6509 67.5217 93.0149 64.557 94.3325C62.3917 95.2949 61.3644 97.1071 59.5532 98.4921C57.2635 100.243 55.2874 102.798 53.6227 105.164C52.227 107.147 49.7855 108.989 48.8042 111.197C48.3865 112.137 47.279 112.867 46.5803 113.607C45.6851 114.554 45.1046 115.824 44.171 116.757C42.252 118.676 41.0052 121.043 39.5378 123.326C34.0251 131.901 34.1934 141.131 36.2019 150.672C36.87 153.845 38.1947 156.85 39.1672 159.938C39.7435 161.769 39.5937 163.698 40.0938 165.498C41.2607 169.699 40.7845 174.269 42.1324 178.471C43.8258 183.751 47.9864 186.064 52.5108 188.932C55.0885 190.566 57.5959 192.36 60.2739 193.833C62.8307 195.239 65.7176 196.42 68.0783 198.137C72.8402 201.6 77.4991 205.34 82.9457 207.568C93.3081 211.807 103.407 209.867 113.669 207.094C115.684 206.549 117.901 206.438 119.97 206.25C122.049 206.061 124.187 205.211 126.271 204.87C128.82 204.453 131.234 203.991 133.664 203.14C135.707 202.425 137.007 201.258 138.873 200.155C142.367 198.09 143.969 194.054 147.028 191.65C148.989 190.109 149.806 187.206 151.105 185.143C152.619 182.739 153.491 179.77 153.988 176.989C155.202 170.188 158.037 163.12 158.147 156.15C158.235 150.614 159.259 145.076 159.259 139.532C159.259 136.8 159.631 134.495 159.177 131.769C158.708 128.957 157.64 126.521 156.85 123.8C155.669 119.732 154.257 115.676 153.329 111.547C152.875 109.527 152.162 105.895 150.281 104.711C144.988 101.378 139.625 97.1262 133.684 95.0738C129.037 93.4683 124.224 91.4312 119.785 89.3081C118.127 88.5155 117.017 87.2901 115.069 87.2901C112.692 87.2901 110.341 86.9194 107.944 86.9194C104.508 86.9194 101.164 86.1781 97.7307 86.1781" stroke="black" stroke-width="3" stroke-linecap="round"/>
<path d="M78.086 118.796C74.1822 118.796 72.4873 122.171 70.1169 124.541C67.2909 127.367 66.426 133.229 67.2546 136.958C68.0122 140.367 68.1925 144.311 70.5082 147.171C73.4871 150.851 76.7606 150.428 81.0512 149.951C84.6801 149.548 88.4643 147.661 88.4643 143.547C88.4643 139.312 88.4643 135.077 88.4643 130.842C88.4643 126.571 85.4356 122.676 82.4515 119.99C80.7112 118.424 77.4428 119.771 75.4914 118.796" stroke="black" stroke-width="3" stroke-linecap="round"/>
<path d="M115.893 120.649C115.807 121.337 111.802 123.063 111.157 124.067C110.103 125.706 108.518 127.604 107.738 129.359C107.093 130.812 106.256 132.332 106.256 134.013C106.256 135.692 105.716 138.367 106.338 139.923C106.815 141.114 107.297 142.719 107.368 144C107.449 145.47 108.956 146.017 109.592 147.13C110.003 147.85 112.845 148.666 113.669 148.901C115.516 149.429 116.707 149.931 118.673 149.931C126.816 149.931 125.53 138.831 125.53 133.416C125.53 127.768 121.236 120.649 115.151 120.649" stroke="black" stroke-width="3" stroke-linecap="round"/>
<path d="M110.333 121.761C109.243 121.625 107.234 117.889 106.709 116.943C106.133 115.907 105.514 115.173 105.514 113.977" stroke="black" stroke-width="3" stroke-linecap="round"/>
<path d="M113.298 118.425C113.298 116.176 113.669 114.275 113.669 112.124" stroke="black" stroke-width="3" stroke-linecap="round"/>
<path d="M118.858 119.537C119.747 119.438 122.546 117.722 122.935 116.943" stroke="black" stroke-width="3" stroke-linecap="round"/>
<path d="M71.0435 120.278C70.9073 119.052 69.6855 117.356 69.1078 116.201C68.6645 115.315 68.4831 114.416 68.0782 113.607" stroke="black" stroke-width="3" stroke-linecap="round"/>
<path d="M75.8621 112.124V116.943" stroke="black" stroke-width="3" stroke-linecap="round"/>
<path d="M79.9392 117.684C80.04 116.878 82.5127 115.46 83.2751 115.46" stroke="black" stroke-width="3" stroke-linecap="round"/>
<path d="M64.0011 109.9C65.0424 109.77 66.3577 106.477 67.5017 105.823C68.6693 105.156 69.3828 104.224 70.6729 103.681C71.5377 103.317 73.0748 103.228 74.0088 103.228C76.2676 103.228 78.1226 102.821 80.4747 103.249C82.7958 103.671 83.3429 105.739 84.3871 107.305" stroke="black" stroke-width="3" stroke-linecap="round"/>
<path d="M106.256 107.305C108.058 105.503 110.403 104.433 112.269 102.94C113.44 102.003 116.893 103.228 118.117 103.228C122.997 103.228 123.719 107.369 125.9 110.641" stroke="black" stroke-width="3" stroke-linecap="round"/>
<path d="M96.248 156.603C94.8025 156.603 91.5426 156.768 90.3999 157.797C89.0069 159.051 89.2056 160.831 89.2056 162.533C89.2056 167.653 94.6701 166.24 98.1013 166.24" stroke="black" stroke-width="3" stroke-linecap="round"/>
<path d="M55.1053 169.205C55.1053 166.906 54.5967 163.665 57.1439 162.533C59.914 161.302 62.8682 162.773 65.4837 163.645" stroke="black" stroke-width="3" stroke-linecap="round"/>
<path d="M132.202 157.715C134.6 155.583 139.047 155.861 142.024 155.861C145.916 155.861 144.804 161.042 144.804 163.645" stroke="black" stroke-width="3" stroke-linecap="round"/>
<path d="M58.0706 165.128C61.4572 168.514 65.843 170.305 69.1902 173.653C72.0079 176.47 74.9737 179.435 77.427 182.548C83.1568 189.821 93.9877 186.768 101.808 186.626C106.121 186.547 109.885 186.86 113.957 185.596C118.065 184.321 120.524 181.059 123.759 178.471C126.007 176.673 128.099 175.45 129.978 173.303C131.482 171.583 133.032 169.712 134.137 167.722C135.635 165.025 138.269 162.884 139.985 160.309" stroke="black" stroke-width="3" stroke-linecap="round"/>
<path d="M47.3216 109.9C45.2276 109.435 43.3774 104.024 42.6884 102.466C40.6297 97.8118 38.7376 93.0438 37.1286 88.2167C36.3001 85.7312 35.7221 83.1673 35.09 80.6389C34.8159 79.5424 34.2415 78.5609 33.9986 77.4677C33.775 76.4613 35.1506 78.0899 35.2547 78.1885C37.6051 80.4129 40.5876 81.7815 43.4503 83.2129C46.1537 84.5646 49.893 85.8031 52.1401 87.8255C55.1806 90.562 58.6125 92.9355 62.1478 94.7032" stroke="black" stroke-width="3" stroke-linecap="round"/>
<path d="M48.0629 84.3249C48.0629 82.5464 47.5169 80.8624 47.3422 79.1151C47.1067 76.7603 47.3216 74.2751 47.3216 71.9079C47.3216 69.8075 47.3216 67.7072 47.3216 65.6068C47.3216 65.0608 48.0694 66.5399 48.6189 67.0894C50.947 69.4175 54.0098 71.0755 55.7643 73.9465C56.9414 75.8727 58.6067 77.3651 60.6652 78.3944" stroke="black" stroke-width="3" stroke-linecap="round"/>
<path d="M62.1478 95.0739C62.1478 90.1687 60.8128 85.4071 60.6652 80.5359C60.5733 77.5054 60.6398 73.9525 60.1092 70.9813C59.7408 68.9181 59.9239 66.7519 59.9239 64.6595C59.9239 63.9233 59.5769 60.0696 61.0358 61.7973C67.7395 69.7358 73.8679 78.1769 82.5338 83.9542" stroke="black" stroke-width="3" stroke-linecap="round"/>
<path d="M73.2675 71.3519C73.5294 67.4235 73.8764 63.3895 74.3794 59.491C74.6507 57.3886 74.7679 55.3245 75.862 53.4781C76.0971 53.0815 76.651 51.3843 77.3447 52.0779C78.4496 53.1828 79.227 54.6378 80.3099 55.7844C82.4167 58.0151 83.4898 61.3075 85.1284 63.8565C85.7914 64.8877 86.9144 67.9824 87.723 68.3867" stroke="black" stroke-width="3" stroke-linecap="round"/>
<path d="M85.1284 85.4368C88.2905 78.8251 90.0718 71.1505 92.4592 64.2271C93.104 62.3572 93.9057 60.597 94.5595 58.7291C95.0197 57.4143 96.1765 55.2917 96.2481 53.9311C96.4394 50.296 98.0917 58.0951 98.2043 58.4202C100.242 64.3006 101.92 70.2673 103.949 76.1293C104.934 78.9731 106.793 81.4902 107.738 84.3249" stroke="black" stroke-width="3" stroke-linecap="round"/>
<path d="M104.773 70.9813C107.626 67.812 109.077 63.2764 111.733 59.8616C113.133 58.0621 114.517 56.2074 115.893 54.4871C116.865 53.2713 116.98 55.5878 117.087 56.1551C117.551 58.6148 119.149 60.57 120.155 62.8063C121.065 64.8275 121.721 66.5657 122.935 68.3867" stroke="black" stroke-width="3" stroke-linecap="round"/>
<path d="M112.557 85.0662C116.244 81.379 120.275 77.9611 123.821 74.1524C126.307 71.4821 127.728 67.9255 130.184 65.2361C131.615 63.6683 132.824 61.9122 133.767 60.0264C133.949 59.6619 134.426 58.5893 134.426 58.9968C134.426 61.0148 134.426 63.0328 134.426 65.0508C134.426 71.2423 135.538 77.2474 135.538 83.4188C135.538 87.0814 135.538 90.9195 135.538 94.3325" stroke="black" stroke-width="3" stroke-linecap="round"/>
<path d="M136.649 80.2477C138.467 78.4304 140.703 77.0105 142.724 75.4291C144.013 74.4208 144.615 72.8 145.916 71.805C147.299 70.747 148.785 69.7752 150.199 68.7573C152.721 66.9417 151.974 67.6258 151.476 69.8693C150.36 74.8881 149.757 79.8451 148.14 84.6955" stroke="black" stroke-width="3" stroke-linecap="round"/>
<path d="M135.167 96.5565C136.121 96.5565 136.937 96.0742 137.844 95.8151C140.905 94.9406 143.971 94.0991 147.028 93.2C151.714 91.8217 158.088 89.5095 161.813 86.1987C163.128 85.0298 164.421 83.6484 165.931 82.7599C167.332 81.9357 167.203 81.7823 166.302 83.5835C164.518 87.1518 163.025 90.7784 161.154 94.3119C160.205 96.1047 159.589 98.5123 158.292 100.098C155.587 103.404 152.989 107.245 151.105 111.012" stroke="black" stroke-width="3" stroke-linecap="round"/>
<path d="M158.518 99.8924C163.468 99.8924 168.398 99.2426 173.344 99.1511C175.144 99.1177 176.907 98.7804 178.719 98.7804C180.154 98.7804 177.437 101.366 177.051 101.663C176.12 102.381 174.946 102.764 173.9 103.228C172.767 103.732 171.732 104.983 170.75 105.74C168.808 107.239 167.251 110.352 165.19 111.383" stroke="black" stroke-width="3" stroke-linecap="round"/>
<path d="M151.846 113.607C158.651 113.607 165.496 112.865 172.232 112.865C175.259 112.865 178.308 112.495 181.293 112.495C182.048 112.495 183.558 111.74 183.558 112.495C183.558 112.888 180.655 114.578 180.304 114.801C175.605 117.791 172.561 122.856 169.638 127.403C168.162 129.698 166.591 131.85 164.655 133.787C163.678 134.763 162.083 135.76 161.483 136.958" stroke="black" stroke-width="3" stroke-linecap="round"/>
<path d="M174.086 126.209C174.295 127.045 176.706 126.896 177.38 126.971C178.622 127.109 179.836 128.107 181.128 128.35C183.225 128.746 184.921 130.319 186.894 130.677C189.824 131.21 183.4 136.164 182.817 136.567C181.55 137.44 178.68 139.552 177.051 139.552" stroke="black" stroke-width="3" stroke-linecap="round"/>
<path d="M163.707 136.587C163.788 137.232 165.607 137.694 166.137 137.885C168.929 138.89 171.779 139.914 174.6 140.809C176.93 141.547 179.831 143.132 182.24 143.259C184.539 143.38 186.984 145.644 189.303 146.224C190.739 146.583 191.876 146.966 193.36 146.966" stroke="black" stroke-width="3" stroke-linecap="round"/>
<path d="M158.889 162.904C160.183 162.904 161.722 161.836 162.966 161.421C165.315 160.638 167.384 159.347 169.72 158.538C173.523 157.222 177.336 155.759 180.963 154.008C183.376 152.843 186.061 152.722 188.376 151.249C189.514 150.525 191.628 149.56 192.989 149.56" stroke="black" stroke-width="3" stroke-linecap="round"/>
<path d="M173.344 158.456C176.142 158.736 179.327 161.838 181.828 163.089C184.338 164.344 186.169 166.42 188.171 168.278C189.466 169.482 189.129 169.929 187.553 170.132C184.646 170.504 181.464 170.647 178.534 170.687C175.913 170.724 173.389 171.058 170.75 171.058" stroke="black" stroke-width="3" stroke-linecap="round"/>
<path d="M159.63 165.498C162.452 165.851 165.276 168.798 167.496 170.399C169.312 171.709 171.032 173.02 172.788 174.394C174.344 175.611 175.701 177.443 177.421 178.389C179.168 179.35 180.842 180.705 182.528 181.807C182.934 182.072 185.236 183.57 184.464 183.66C182.034 183.946 180.11 185.038 177.504 184.69C172.967 184.085 168.259 184.465 163.707 184.402C159.392 184.342 155.383 184.772 151.105 184.772" stroke="black" stroke-width="3" stroke-linecap="round"/>
<path d="M164.078 185.514C164.272 187.456 165.45 190.414 166.384 192.103C167.713 194.504 168.467 197.15 169.803 199.578C170.579 200.99 171.786 202.232 172.315 203.758C172.505 204.308 172.998 205.539 173.509 205.879C174.126 206.29 172.014 206.012 171.285 205.879C169.245 205.508 167.167 205.063 165.19 204.417C162.944 203.683 160.732 202.931 158.518 202.193" stroke="black" stroke-width="3" stroke-linecap="round"/>
<path d="M153.329 186.255C153.426 187.228 154.114 188.148 154.523 189.014C155.67 191.439 156.285 194.094 157.406 196.551C159.181 200.442 160.686 204.578 162.039 208.638C162.448 209.865 164.466 215.801 163.419 216.731C162.847 217.24 155.894 213.907 154.812 213.395C151.656 211.903 147.841 211.489 144.824 209.792C143.488 209.04 142.033 208.378 140.521 208.103C138.6 207.754 136.181 205.432 134.796 204.046" stroke="black" stroke-width="3" stroke-linecap="round"/>
<path d="M147.028 211.83C147.028 217.95 149.858 224.721 148.49 230.878C148.41 231.237 146.172 229.832 145.916 229.704C143.561 228.527 141.097 227.176 138.585 226.368C137.218 225.929 135.485 225.174 134.055 225.174" stroke="black" stroke-width="3" stroke-linecap="round"/>
<path d="M131.831 206.27C132.051 212.218 132.943 218.134 132.943 224.082C132.943 226.769 133.017 229.213 133.602 231.846C133.748 232.504 133.684 233.213 133.684 233.884C133.684 234.518 132.055 232.44 131.749 232.134C130.172 230.557 128.634 228.926 126.971 227.439C125.877 226.46 124.466 225.682 123.821 224.391C122.856 222.462 121.405 220.96 119.599 219.799C117.973 218.754 116.992 216.982 115.44 215.907C114.305 215.122 113.304 213.501 112.186 212.942" stroke="black" stroke-width="3" stroke-linecap="round"/>
<path d="M121.453 222.95C119.976 224.591 119.288 227.917 118.693 229.972C117.948 232.546 117.318 235.169 116.716 237.776C116.337 239.42 116.234 241.151 115.872 242.78C115.78 243.196 115.284 245.374 115.172 244.983C113.637 239.611 111.101 234.179 109.056 228.922C108.669 227.925 108.692 226.916 108.191 225.915C107.808 225.149 106.997 224.085 106.997 223.321" stroke="black" stroke-width="3" stroke-linecap="round"/>
<path d="M108.48 215.537C108.206 218.823 105.639 221.421 104.402 224.35C103.797 225.783 102.919 227.078 102.364 228.53C101.61 230.501 100.147 232.45 99.6046 234.44C99.0574 236.447 97.8451 238.682 97.7307 240.741C97.697 241.349 97.4698 241.823 97.3395 242.409C97.0633 243.652 96.9894 240.231 96.9894 239.979C96.9894 234.784 95.5816 229.771 93.2828 225.174C92.4051 223.418 91.9052 221.465 91.2442 219.614C90.6366 217.913 89.5763 216.26 89.5763 214.425" stroke="black" stroke-width="3" stroke-linecap="round"/>
<path d="M74.7501 223.691C74.7501 225.111 75.1489 226.633 75.512 227.995C76.3676 231.203 76.7246 234.513 77.53 237.735C77.6935 238.389 79.5089 244.768 79.5686 244.736C80.6119 244.184 81.8836 242.503 82.7191 241.668C84.1627 240.224 85.7472 239.025 87.3523 237.776C89.2812 236.276 90.8033 234.325 92.5415 232.587" stroke="black" stroke-width="3" stroke-linecap="round"/>
<path d="M79.9393 212.942C79.6973 214.152 77.854 215.356 76.9946 216.072C75.3905 217.409 74.0531 219.032 72.4438 220.355C70.5201 221.937 68.3713 223.773 67.337 226.1C66.5961 227.768 65.5976 228.859 64.5777 230.342C64.199 230.893 63.67 231.696 63.1774 232.134C63.0391 232.257 63.3023 227.82 63.3422 227.398C63.8835 221.66 65.8544 215.916 65.8544 210.162C65.8544 208.136 65.731 204.664 66.5957 202.934" stroke="black" stroke-width="3" stroke-linecap="round"/>
<path d="M61.4065 205.158C59.5242 205.347 57.4304 206.225 55.5584 206.641C53.5987 207.077 51.6519 207.179 49.7102 207.568C47.5209 208.006 45.7301 208.364 43.6974 209.236C40.363 210.665 37.4937 213.308 33.978 214.342C32.9465 214.646 32.4413 215.122 32.7837 213.889C33.5631 211.084 34.9791 208.564 36.552 206.126C38.2379 203.513 39.9717 200.88 41.3911 198.116C43.2315 194.532 47.1491 191.591 48.4335 187.738" stroke="black" stroke-width="3" stroke-linecap="round"/>
<path d="M48.8042 212.572C46.8137 212.793 45.3859 219.843 45.18 221.467C45.0682 222.349 43.863 228.412 44.8093 229.169C45.2898 229.553 49.0847 227.564 49.5455 227.398C51.9357 226.537 54.3451 225.75 56.6703 224.721C58.3893 223.96 59.6371 222.428 61.4065 221.838" stroke="black" stroke-width="3" stroke-linecap="round"/>
<path d="M40.6498 194.78C39.9717 194.78 39.321 195.074 38.5906 195.171C36.1085 195.502 33.6951 195.728 31.1981 195.913C27.4597 196.19 22.7678 197.493 19.3577 199.043C19.075 199.171 17.6951 200.039 17.6692 199.599C17.5445 197.479 20.4003 195.84 21.8287 194.698C23.9413 193.008 25.9406 191.182 28.0475 189.509C28.6583 189.024 29.9489 188.383 30.2714 187.738" stroke="black" stroke-width="3" stroke-linecap="round"/>
<path d="M42.5031 185.884C34.4006 185.884 26.2417 185.514 18.184 185.514C15.5312 185.514 12.9184 184.772 10.3384 184.772C6.79725 184.772 12.9369 181.265 13.5714 180.881C19.5345 177.271 26.2071 174.623 30.2714 168.752C31.8396 166.487 34.154 164.484 36.5726 163.274" stroke="black" stroke-width="3" stroke-linecap="round"/>
<path d="M20.2638 172.17C18.5813 172.17 17.2621 170.971 15.8159 170.234C13.474 169.042 11.0336 167.748 8.40282 167.372C6.36981 167.082 4.37482 164.869 2.47234 164.757C0.551373 164.644 4.05185 163.35 4.49035 163.192C7.36778 162.153 11.3828 162.1 13.7979 160.124C15.3414 158.861 18.8873 157.344 21.0051 157.344" stroke="black" stroke-width="3" stroke-linecap="round"/>
<path d="M35.09 160.68C33.2345 158.824 30.6606 157.426 28.5623 155.841C26.1991 154.055 23.696 152.248 21.0874 150.837C19.3548 149.9 17.4085 149.667 15.6512 148.819C11.895 147.006 8.02746 147.22 3.95493 146.966C3.2259 146.92 7.85184 144.145 8.19688 144C10.1431 143.186 11.994 142.171 13.9626 141.406C16.3503 140.477 18.8805 140.24 21.3345 139.552C23.6712 138.898 25.8696 137.914 28.2123 137.329C29.704 136.956 31.5802 136.703 32.866 135.846" stroke="black" stroke-width="3" stroke-linecap="round"/>
<path d="M16.1865 139.182C14.7577 139.023 12.9662 137.033 11.9034 136.217C9.99105 134.748 8.80787 132.584 7.2908 130.739C6.06802 129.252 4.13892 128.283 3.06945 126.785C2.68361 126.245 7.70975 126.201 8.01152 126.188C9.90803 126.109 11.7427 125.644 13.6125 125.488C16.3015 125.264 19.0462 125.097 21.7464 125.097" stroke="black" stroke-width="3" stroke-linecap="round"/>
<path d="M32.8661 132.881C30.6564 128.461 26.0953 124.662 22.323 121.576C20.0099 119.683 16.7099 119.136 14.1686 117.519C11.3824 115.746 9.88544 113.47 9.88544 110.085C9.88544 107.732 14.8422 108.788 16.1866 108.788C22.0336 108.788 27.8379 108.417 33.6897 108.417C37.0812 108.417 40.537 109.529 43.9857 109.529" stroke="black" stroke-width="3" stroke-linecap="round"/>
<path d="M28.0475 108.788C27.8785 107.267 26.4615 105.416 25.8236 104.052C25.0152 102.323 23.7097 100.764 22.673 99.1511C21.6001 97.4821 20.7879 95.8639 20.1814 94.0443C19.791 92.8733 19.0525 92.4793 20.7168 92.4793C24.0202 92.4793 27.3099 92.8499 30.6009 92.8499C32.8032 92.8499 34.7492 92.5944 36.5726 93.9619" stroke="black" stroke-width="3" stroke-linecap="round"/>
<path d="M45.839 109.529C44.8442 108.286 44.3969 105.933 43.9033 104.464C42.9437 101.607 42.1307 98.7025 41.0205 95.8975C40.1387 93.67 39.9561 91.3439 39.0024 89.164C37.7593 86.3226 38.8788 83.0069 36.655 80.5359C36.5721 80.4439 35.9835 79.2731 36.2843 79.3004C37.7981 79.438 40.344 81.591 41.6794 82.3069C45.664 84.4429 49.912 86.6881 54.1581 88.2167C56.105 88.9176 58.6583 91.8014 59.5532 93.5912" stroke="black" stroke-width="3" stroke-linecap="round"/>
<path d="M47.3216 82.8422C47.8075 77.9827 47.3216 73.2861 47.3216 68.3867C47.3216 67.0158 49.998 69.9511 50.4722 70.4253C51.7352 71.6883 53.0663 73.349 54.5494 74.3378C55.1459 74.7355 55.9656 75.4501 56.5056 75.8822C57.2474 76.4756 58.8045 76.8969 59.1826 77.6531" stroke="black" stroke-width="3" stroke-linecap="round"/>
<path d="M60.6651 94.7032C60.0122 87.5211 60.6651 80.0967 60.6651 72.8345C60.6651 69.0979 60.2945 65.4291 60.2945 61.7149" stroke="black" stroke-width="3" stroke-linecap="round"/>
<path d="M25.8236 65.4214C24.9764 65.4214 23.7119 65.7501 23.9909 64.4948C24.2283 63.4263 25.2298 63.1408 26.1942 63.1975C27.7456 63.2888 27.072 66.9041 25.0823 66.9041" stroke="black" stroke-width="3" stroke-linecap="round"/>
<path d="M28.7888 63.5682C28.7888 60.6834 28.4182 57.9403 28.4182 55.0431C28.4182 53.8581 28.7315 52.7963 28.7888 51.7072C28.8249 51.021 28.8037 49.0013 29.2418 48.4537C30.0723 47.4155 37.4901 53.1898 39.1671 53.1898" stroke="black" stroke-width="3" stroke-linecap="round"/>
<path d="M37.3139 53.5605C37.3139 58.0896 37.3139 62.7258 37.3139 67.2747" stroke="black" stroke-width="3" stroke-linecap="round"/>
<path d="M36.5726 68.7573C36.1321 68.7573 30.7961 68.7323 32.6807 70.24C34.455 71.6594 35.5601 70.8817 36.9432 69.4986" stroke="black" stroke-width="3" stroke-linecap="round"/>
<path d="M138.873 20.9428C137.175 20.9428 136.087 21.236 134.59 21.6635C133.94 21.8493 132.072 23.7306 132.758 24.2787C135.308 26.3193 138.132 24.9735 138.132 21.6841" stroke="black" stroke-width="3" stroke-linecap="round"/>
<path d="M137.391 19.8309C137.391 17.1453 136.852 14.6429 137.205 11.8824C137.484 9.71217 138.132 7.34689 138.132 5.19C138.132 4.86335 138.159 2.25996 138.42 2.49245C139.349 3.31746 139.756 4.98758 140.809 5.74598C141.694 6.3828 142.758 7.70066 143.877 7.94932C145.103 8.22173 145.545 8.51786 145.545 10.0291C145.545 12.6786 145.545 15.3281 145.545 17.9776" stroke="black" stroke-width="3" stroke-linecap="round"/>
<path d="M67.337 142.888C67.337 141.25 67.2609 139.54 67.9959 138.07C68.9423 136.177 70.7557 135.969 72.0731 134.652C73.9835 132.741 78.9387 129.915 81.7925 129.915C83.3767 129.915 85.2148 129.874 86.2404 131.027C87.0757 131.967 87.6582 134.614 87.723 135.846C87.867 138.582 89.7687 144.275 86.611 145.854" stroke="black" stroke-width="3" stroke-linecap="round"/>
<path d="M105.514 137.699C105.775 133.276 113.342 132.139 116.819 132.139C118.191 132.139 121.46 130.87 122.647 132.057C123.505 132.915 124.628 134.785 125.159 135.846" stroke="black" stroke-width="3" stroke-linecap="round"/>
<path d="M68.4489 139.552C69.517 138.698 71.7112 139.069 73.0409 138.626C74.1921 138.242 75.0233 137.604 75.6767 136.587C76.598 135.154 78.1511 134.413 79.5686 133.704C80.4719 133.253 81.7512 132.51 82.7191 132.51C83.2352 132.51 84.5873 131.774 84.2223 132.139C83.3907 132.971 80.2463 133.037 79.1979 133.251C76.6096 133.781 70.5172 133.087 70.3022 136.958C70.1519 139.663 74.163 137.025 75.2854 136.217C76.9557 135.014 78.7111 134.057 80.4952 133.066C81.6879 132.403 84.1795 131.505 85.1284 132.51C86.178 133.621 85.8697 135.568 85.8697 136.958C85.8697 138.847 86.7198 143.772 85.5814 145.195C84.8831 146.068 84.0571 147.439 82.6985 147.686C80.1194 148.155 77.5018 147.431 75.0383 147.336C71.0492 147.183 72.2588 144.112 70.8582 141.591C70.4858 140.921 71.7542 138.787 72.0731 138.07C72.6262 136.825 73.3449 139.693 73.6381 140.5C74.0227 141.557 74.1764 145.576 76.2327 144.577C77.7014 143.863 79.1979 142.055 79.1979 140.479C79.1979 139.182 79.1979 137.885 79.1979 136.587C79.1979 134.842 79.7626 135.325 80.6805 134.178C81.3187 133.38 83.1941 135.157 83.2751 135.846C83.4693 137.497 83.6458 139.034 83.6458 140.788C83.6458 142.228 83.7799 143.125 82.7191 144.186C82.1915 144.713 78.8991 145.963 78.8273 144.742C78.7642 143.67 79.675 142.385 80.3099 141.591C81.1625 140.525 81.0512 139.591 81.0512 138.255C81.0512 136.679 81.0512 135.8 81.0512 137.987C81.0512 139.81 80.4968 140.454 79.9392 142.126C79.1404 144.523 76.3491 145.239 74.3794 146.224" stroke="black" stroke-width="3" stroke-linecap="round"/>
<path d="M79.5686 137.329C81.0875 137.497 83.1661 144.044 82.0808 145.401C80.1389 147.828 80.6806 142.942 80.6806 141.776C80.6806 140.664 80.6806 139.552 80.6806 138.441C80.6806 137.257 79.5686 136.454 79.5686 135.475C79.5686 134.214 85.259 134.238 86.2404 133.993" stroke="black" stroke-width="3" stroke-linecap="round"/>
<path d="M72.1555 136.587C73.5899 136.428 74.8202 135.105 76.418 135.105C77.5347 135.105 78.5249 134.734 79.5686 134.734C82.644 134.734 82.5338 135.217 82.5338 138.07" stroke="black" stroke-width="3" stroke-linecap="round"/>
<path d="M106.997 136.958C107.625 137.586 108.26 138.324 108.48 139.202C108.775 140.383 110.207 141.384 110.333 142.518C110.425 143.348 113.016 146.989 111.074 146.018C109.655 145.309 108.431 143.291 107.45 142.065C106.603 141.006 107.368 137.943 107.368 136.773C107.368 135.65 111.223 135.475 112.104 135.475C113.9 135.475 115.493 134.363 117.19 134.363C118.318 134.363 121.097 133.263 122.112 134.075C123.516 135.198 123.287 137.508 122.956 138.996C122.303 141.934 124.585 146.595 120.258 146.595C116.502 146.595 112.772 147.636 110.415 143.63C109.728 142.461 108.109 141.669 108.109 140.108C108.109 139.381 107.338 137.403 107.821 137.946C108.313 138.5 108.464 139.81 108.85 140.5C109.548 141.746 110.05 143.099 110.704 144.371C111.466 145.855 113.306 147.688 114.966 148.057C116.365 148.368 118.782 148.671 119.97 148.078" stroke="black" stroke-width="3" stroke-linecap="round"/>
<path d="M108.85 138.07C112.045 137.715 115.33 136.587 118.487 136.587C119.223 136.587 119.775 136.217 120.526 136.217C121.308 136.217 120.227 136.233 119.888 136.505C119.433 136.868 118.489 136.463 117.931 136.773C117.222 137.167 116.49 137.546 115.707 137.72C115.059 137.864 112.546 138.917 112.186 139.367C112.1 139.475 111.003 140.058 110.868 139.923C110.531 139.586 113.253 138.101 113.319 138.07C116.387 136.638 126.334 134.702 123.306 136.217" stroke="black" stroke-width="3" stroke-linecap="round"/>
<path d="M112.557 139.552C112.557 140.556 112.928 141.364 112.928 142.332C112.928 142.792 113.298 145.009 113.298 143.63C113.298 142.554 113.27 141.45 113.875 140.5C114.2 139.989 115.357 138.772 115.357 138.152C115.357 136.332 114.518 141.708 113.854 143.403C113.692 143.817 112.864 146.437 113.01 146.307C114.591 144.901 115.491 142.598 115.872 140.5C116.037 139.595 116.91 137.056 116.346 137.782C115.819 138.459 116.263 140.751 116.263 141.591C116.263 142.512 116.209 143.452 116.263 144.371C116.302 145.027 118.168 144.742 118.673 144.742C120.966 144.742 122.162 144.723 121.473 142.312C120.967 140.54 122.34 139.104 121.453 137.329" stroke="black" stroke-width="3" stroke-linecap="round"/>
</svg>
